<svg width="121" height="62" viewBox="0 0 121 62" fill="none" xmlns="http://www.w3.org/2000/svg">
<path d="M88.3857 18.2307C88.5476 18.2506 88.7091 18.2756 88.8712 18.2898C89.6938 18.3615 90.5004 18.5163 91.2934 18.7477C92.3138 19.0456 93.2811 19.4664 94.1882 20.0266C94.7372 20.3655 95.2457 20.7593 95.7224 21.1954C95.7341 21.2059 95.7421 21.2204 95.7614 21.2454C94.6143 22.4478 93.4677 23.6494 92.3167 24.8555C92.1611 24.7274 92.0135 24.602 91.862 24.4815C91.0736 23.8531 90.2122 23.3655 89.2258 23.142C88.1157 22.8905 87.013 22.9094 85.9434 23.3395C85.3901 23.5621 84.9238 23.9083 84.6642 24.4739C84.2885 25.2927 84.369 26.4276 85.2934 27.0862C85.7299 27.3971 86.2056 27.627 86.7054 27.8027C87.6574 28.1374 88.6167 28.4505 89.5699 28.782C90.5668 29.1287 91.5394 29.5321 92.4483 30.0801C93.2779 30.5802 94.0118 31.1907 94.5768 31.9903C95.0971 32.7267 95.4173 33.5492 95.552 34.4429C95.736 35.6632 95.6509 36.8692 95.3262 38.0561C95.0363 39.1147 94.5319 40.0592 93.8043 40.8777C93.0816 41.6909 92.2142 42.3007 91.2355 42.7576C90.3125 43.1885 89.346 43.4645 88.3416 43.6037C87.9347 43.6601 87.5244 43.6942 87.1148 43.7266C86.8111 43.7506 86.5042 43.7835 86.202 43.7624C85.535 43.7155 84.8678 43.6559 84.2054 43.5664C83.4456 43.4635 82.7025 43.2714 81.9739 43.029C80.7786 42.6312 79.6574 42.0828 78.6387 41.3292C78.2085 41.011 77.8096 40.6574 77.4264 40.2498C78.5936 39.0278 79.7601 37.8066 80.9349 36.5765C81.0791 36.7164 81.2153 36.8533 81.3566 36.9846C82.0512 37.6304 82.8484 38.1062 83.7289 38.4431C84.6683 38.8026 85.6404 38.9795 86.6436 38.9392C87.3341 38.9115 88.0062 38.7827 88.6099 38.4109C89.2743 38.0016 89.6288 37.397 89.7057 36.6202C89.7423 36.2506 89.7168 35.888 89.5896 35.5346C89.426 35.0797 89.1203 34.7415 88.7425 34.4621C88.233 34.0852 87.6644 33.8201 87.0738 33.6103C86.1228 33.2727 85.1625 32.9618 84.2093 32.6303C83.1884 32.2752 82.1996 31.8475 81.2997 31.2341C80.5217 30.7038 79.8559 30.0592 79.3721 29.2389C78.9271 28.4844 78.6789 27.6621 78.5871 26.7908C78.4518 25.5077 78.5716 24.2555 79.057 23.0534C79.4872 21.9884 80.1644 21.1115 81.0483 20.3903C81.9599 19.6466 82.9936 19.1455 84.1029 18.7953C85.1208 18.4739 86.1676 18.3114 87.2316 18.257C87.2694 18.255 87.3065 18.2403 87.344 18.2317C87.6914 18.2317 88.0387 18.2317 88.386 18.2317L88.3857 18.2307Z" fill="#A3A3A3"/>
<path d="M19.3726 43.1782C19.4969 42.8808 19.6137 42.5994 19.732 42.3187C20.1094 41.4216 20.4874 40.5247 20.8651 39.6279C21.2029 38.825 21.5408 38.0221 21.8784 37.219C22.3168 36.1756 22.7541 35.1315 23.1932 34.0884C23.7269 32.8203 24.2628 31.5532 24.7965 30.285C25.2306 29.2532 25.6617 28.2199 26.0961 27.1881C26.5003 26.2272 26.908 25.268 27.312 24.3071C27.7381 23.2942 28.1615 22.28 28.5869 21.2669C28.9145 20.4863 29.2454 19.7068 29.5701 18.925C29.6109 18.8268 29.6627 18.7947 29.7674 18.7949C31.6087 18.7981 33.4499 18.7981 35.2912 18.7949C35.3925 18.7949 35.4408 18.8276 35.4778 18.9203C36.0779 20.4164 36.6805 21.9115 37.2835 23.4066C37.792 24.6676 38.3024 25.9278 38.8106 27.1891C39.2748 28.3412 39.7365 29.4942 40.2006 30.646C40.6982 31.8807 41.1984 33.1145 41.6962 34.3493C42.2639 35.7577 42.83 37.167 43.3969 38.5759C43.9393 39.9245 44.4818 41.2731 45.0244 42.6217C45.0971 42.8026 45.1718 42.9827 45.2518 43.1782C45.197 43.1812 45.1551 43.1856 45.1131 43.1856C43.0234 43.1861 40.9338 43.1854 38.8441 43.1888C38.7411 43.1888 38.6979 43.1527 38.6623 43.0597C38.1848 41.8125 37.7032 40.5667 37.2231 39.3204C37.1177 39.0468 37.0103 38.7739 36.9112 38.4981C36.8756 38.3992 36.8249 38.3649 36.718 38.3651C35.418 38.3693 34.1177 38.3678 32.8176 38.3678C31.1014 38.3678 29.3855 38.3691 27.6693 38.3654C27.5537 38.3651 27.5028 38.3997 27.4628 38.5126C27.1285 39.4573 26.7858 40.3988 26.4465 41.3418C26.2369 41.9244 26.0272 42.5069 25.8212 43.0909C25.7972 43.1589 25.7689 43.1881 25.6942 43.1878C23.6125 43.1859 21.5308 43.1863 19.4491 43.1861C19.4295 43.1861 19.4096 43.1827 19.3726 43.1792V43.1782ZM32.3588 25.3323C32.3467 25.3348 32.3343 25.3375 32.3222 25.3399C31.3193 28.1139 30.3164 30.8879 29.3084 33.6764H35.3743C34.3659 30.8857 33.3625 28.109 32.3591 25.3323H32.3588Z" fill="#A3A3A3"/>
<path d="M53.9389 36.3893C54.0512 36.0375 54.1641 35.6856 54.2754 35.3335C54.5187 34.5642 54.7615 33.7947 55.0039 33.0252C55.4373 31.6489 55.8689 30.272 56.3032 28.8962C56.6195 27.8936 56.9402 26.8924 57.256 25.8898C57.5415 24.9844 57.8217 24.077 58.1069 23.1715C58.4571 22.0602 58.8108 20.9496 59.1624 19.8388C59.2608 19.5281 59.3592 19.2175 59.4535 18.9053C59.4765 18.8288 59.5078 18.7952 59.5951 18.7954C61.6545 18.7984 63.7141 18.7976 65.7735 18.7979C65.8084 18.7979 65.8433 18.8025 65.8893 18.8057C65.8777 18.8516 65.8724 18.8872 65.86 18.9196C65.4683 19.9423 65.0747 20.9643 64.6835 21.9873C63.994 23.7906 63.3069 25.5949 62.6171 27.3979C62.0832 28.7936 61.5451 30.1876 61.0112 31.5833C60.3011 33.4396 59.5938 35.2972 58.8837 37.1537C58.3743 38.4851 57.8617 39.8153 57.3512 41.1465C57.1035 41.7931 56.8568 42.4399 56.6132 43.088C56.5861 43.1603 56.5526 43.1876 56.4746 43.1876C54.6067 43.1854 52.7387 43.1856 50.8706 43.1871C50.8001 43.1871 50.7627 43.1665 50.737 43.0965C50.3253 41.985 49.9108 40.8744 49.4968 39.7636C49.0116 38.4621 48.5259 37.1606 48.0412 35.8591C47.6134 34.7102 47.1868 33.5606 46.7588 32.412C46.1372 30.7439 45.5143 29.0766 44.8928 27.4085C44.2545 25.6947 43.618 23.9803 42.9798 22.2665C42.5664 21.1557 42.1517 20.0456 41.7377 18.935C41.7239 18.898 41.7135 18.8597 41.6938 18.7976C41.7527 18.7976 41.7947 18.7976 41.8366 18.7976C43.9202 18.7976 46.0041 18.7986 48.0877 18.7949C48.1973 18.7949 48.2441 18.8327 48.276 18.9323C48.7375 20.3764 49.1999 21.82 49.6651 23.2625C50.2588 25.1046 50.8563 26.9452 51.4506 28.787C51.8686 30.0824 52.2833 31.3789 52.7005 32.6746C53.0887 33.8806 53.4784 35.0864 53.8679 36.2919C53.8788 36.3258 53.8943 36.3582 53.9077 36.3913C53.9181 36.3908 53.9283 36.3901 53.9387 36.3896L53.9389 36.3893Z" fill="#A3A3A3"/>
<path d="M68.261 43.1763V18.7944C68.3095 18.7944 68.3524 18.7944 68.3953 18.7944C70.2569 18.7944 72.1185 18.7954 73.9801 18.7917C74.0948 18.7917 74.1192 18.8276 74.1192 18.9368C74.1168 26.9693 74.1171 35.0017 74.1188 43.0342C74.1188 43.1351 74.1086 43.1864 73.985 43.1859C72.117 43.1815 70.2491 43.1827 68.381 43.1824C68.3453 43.1824 68.3097 43.1788 68.261 43.1761V43.1763Z" fill="#A3A3A3"/>
<path d="M100.289 18.8047C101.442 18.8133 102.364 19.7008 102.377 20.8529C102.389 21.9615 101.409 22.9138 100.29 22.918C99.1747 22.9222 98.2443 21.9836 98.245 20.8551C98.2457 19.7371 99.1759 18.8042 100.289 18.8044L100.289 18.8047ZM98.546 20.8531C98.532 21.7816 99.3313 22.6019 100.266 22.6179C101.186 22.6336 102.005 21.8155 102.016 20.8693C102.027 19.915 101.257 19.121 100.306 19.1068C99.3393 19.0923 98.5613 19.8642 98.5463 20.8529L98.546 20.8531Z" fill="#A3A3A3"/>
<path d="M99.5356 22.0427C99.556 21.274 99.5289 20.5035 99.5495 19.7274C100.091 19.7274 100.393 19.6879 100.781 19.804C101.089 19.8961 101.245 20.1112 101.254 20.4245C101.261 20.6724 101.088 20.904 100.816 21.0105C100.783 21.0235 100.75 21.0365 100.704 21.0545C100.904 21.3825 101.1 21.7036 101.311 22.0481C101.151 22.0481 101.008 22.0547 100.867 22.0434C100.833 22.0407 100.796 21.9837 100.773 21.9442C100.626 21.6818 100.482 21.4171 100.336 21.1536C100.282 21.0559 100.085 20.9931 99.993 21.0513C99.9683 21.067 99.9566 21.12 99.9562 21.1561C99.953 21.4053 99.9545 21.6548 99.9545 21.9042C99.9545 21.9479 99.9545 21.9916 99.9545 22.0429H99.5356V22.0427ZM99.8968 20.0893C99.8968 20.3115 99.8999 20.448 99.8953 20.6427C99.8931 20.7277 99.929 20.7535 100.003 20.7404C100.152 20.7144 100.302 20.6894 100.45 20.6587C100.621 20.6231 100.705 20.5256 100.707 20.3692C100.709 20.2141 100.618 20.095 100.446 20.0699C100.272 20.0446 100.095 20.1021 99.8968 20.0893Z" fill="#A3A3A3"/>
</svg>
