<svg width="128" height="62" viewBox="0 0 128 62" fill="none" xmlns="http://www.w3.org/2000/svg">
<g clip-path="url(#clip0_171_5683)">
<path d="M13.9847 14.4802H17.0121C18.2296 14.4802 19.1707 14.625 19.8223 14.908C20.4804 15.191 20.9937 15.6319 21.3754 16.2177C21.7506 16.81 21.9414 17.4615 21.9414 18.1854C21.9414 18.8567 21.7769 19.4622 21.4478 20.0216C21.1122 20.5744 20.6252 21.0219 19.9802 21.3576C20.7831 21.6274 21.3952 21.9433 21.8295 22.2987C22.2573 22.6607 22.593 23.095 22.8365 23.6084C23.0734 24.1217 23.1919 24.6745 23.1919 25.2668C23.1919 26.4778 22.7378 27.5044 21.8361 28.3403C20.9345 29.1827 19.7301 29.6039 18.2099 29.6039H13.9847V14.4802ZM15.5182 15.961V20.8114H16.3935C17.4465 20.8114 18.2296 20.7126 18.7298 20.5152C19.23 20.3243 19.6248 20.015 19.9144 19.5938C20.204 19.1726 20.3488 18.7054 20.3488 18.1854C20.3488 17.4878 20.1053 16.9482 19.6183 16.5533C19.1313 16.1584 18.3547 15.961 17.2885 15.961H15.5247H15.5182ZM15.5182 22.3119V28.1099H17.4136C18.5258 28.1099 19.3484 28.0046 19.8683 27.7874C20.3883 27.5768 20.8029 27.2346 21.1254 26.7739C21.4413 26.3132 21.5992 25.8197 21.5992 25.28C21.5992 24.6153 21.382 24.0296 20.9345 23.5294C20.487 23.0292 19.8749 22.687 19.0918 22.4961C18.5718 22.3777 17.6768 22.3053 16.3803 22.3053H15.5182V22.3119Z" fill="#A3A3A3"/>
<path d="M39.2237 14.4802L46.3841 29.6039H44.7256L42.3301 24.6482H35.6962L33.3204 29.6039H31.6158L38.8552 14.4802H39.2237ZM39.046 17.6655L36.4135 23.1543H41.6654L39.046 17.6655Z" fill="#A3A3A3"/>
<path d="M55.6108 14.4802H58.6645C60.3625 14.4802 61.5076 14.546 62.1197 14.6842C63.0279 14.8883 63.765 15.3292 64.3309 16.0071C64.8969 16.6783 65.1865 17.5142 65.1865 18.5013C65.1865 19.324 64.9891 20.0479 64.6008 20.6731C64.2059 21.2984 63.6399 21.7656 62.916 22.0815C62.1921 22.404 61.1785 22.562 59.9018 22.5751L65.4103 29.6039H63.5149L58.013 22.5751H57.1443V29.6039H55.6108V14.4802ZM57.1443 15.961V21.0812L59.7767 21.1009C60.7968 21.1009 61.5471 21.0022 62.0407 20.8179C62.5211 20.6205 62.9094 20.3178 63.1858 19.8966C63.4622 19.4754 63.5873 19.0147 63.5873 18.4948C63.5873 17.9748 63.4556 17.5273 63.1792 17.1193C62.8962 16.6981 62.5343 16.4019 62.0933 16.2308C61.6392 16.0531 60.889 15.961 59.8426 15.961H57.1443Z" fill="#A3A3A3"/>
<path d="M82.548 14.1191C84.8777 14.1191 86.8192 14.8826 88.3855 16.4094C89.9518 17.9362 90.735 19.8053 90.735 22.0429C90.735 24.2805 89.9584 26.1299 88.3921 27.6633C86.8258 29.2033 84.9304 29.9667 82.6796 29.9667C80.4288 29.9667 78.4874 29.2033 76.921 27.6699C75.3547 26.143 74.5715 24.2805 74.5715 22.1153C74.5715 20.6609 74.9269 19.3117 75.6377 18.0745C76.355 16.8372 77.3225 15.8632 78.5597 15.1721C79.7904 14.4679 81.1264 14.1191 82.5545 14.1191M82.6204 15.6065C81.4884 15.6065 80.4157 15.8895 79.3956 16.4818C78.3821 17.0544 77.5923 17.8375 77.0132 18.8247C76.4472 19.8053 76.1576 20.911 76.1576 22.1153C76.1576 23.9054 76.7894 25.4125 78.053 26.6432C79.3166 27.8805 80.8369 28.4925 82.6204 28.4925C83.8116 28.4925 84.9106 28.2095 85.9241 27.6435C86.9376 27.0775 87.7274 26.301 88.2934 25.3204C88.8593 24.3332 89.1423 23.2473 89.1423 22.0429C89.1423 20.8386 88.8593 19.7658 88.2934 18.7984C87.7274 17.8375 86.9245 17.0609 85.8912 16.4818C84.8646 15.8961 83.7721 15.6065 82.6138 15.6065" fill="#A3A3A3"/>
<path d="M100.574 29.6039V14.4802H100.903L111.085 26.0368V14.4802H112.618V29.6039H112.269L102.16 18.1657V29.6039H100.574Z" fill="#A3A3A3"/>
<path d="M113.683 36.6063C113.874 36.6063 114.045 36.5865 114.045 36.3627C114.045 36.1785 113.874 36.1456 113.723 36.1456H113.42V36.6063H113.683ZM113.42 37.4289H113.19V35.9613H113.749C114.098 35.9613 114.269 36.0863 114.269 36.3759C114.269 36.6392 114.105 36.7576 113.887 36.7839L114.309 37.4289H114.059L113.67 36.7905H113.414V37.4289H113.42ZM113.69 37.758C114.269 37.758 114.723 37.3104 114.723 36.6984C114.723 36.0863 114.269 35.6322 113.69 35.6322C113.111 35.6322 112.65 36.0863 112.65 36.6984C112.65 37.3104 113.111 37.758 113.69 37.758ZM112.394 36.6984C112.394 35.9613 112.986 35.4216 113.69 35.4216C114.394 35.4216 114.98 35.9613 114.98 36.6984C114.98 37.4355 114.388 37.9751 113.69 37.9751C112.992 37.9751 112.394 37.4289 112.394 36.6984Z" fill="#A3A3A3"/>
<path d="M24.7001 37.7789L23.7524 38.5094C23.2259 37.825 22.6007 37.3116 21.8702 36.9628C21.1396 36.614 20.3302 36.4363 19.4549 36.4363C18.494 36.4363 17.6055 36.6667 16.7895 37.1273C15.9734 37.588 15.335 38.2067 14.8875 38.9833C14.44 39.7598 14.2162 40.6351 14.2162 41.6026C14.2162 43.0702 14.7164 44.2943 15.7233 45.2749C16.7302 46.2555 18.0004 46.7491 19.5272 46.7491C21.212 46.7491 22.6204 46.091 23.7524 44.7681L24.7001 45.4855C24.1012 46.2489 23.3509 46.8412 22.4559 47.2558C21.5608 47.6705 20.5605 47.8811 19.4483 47.8811C17.3423 47.8811 15.6838 47.1835 14.4663 45.7817C13.4462 44.597 12.9395 43.1689 12.9395 41.4973C12.9395 39.7335 13.5581 38.2527 14.7888 37.055C16.026 35.8506 17.5726 35.2517 19.4285 35.2517C20.5539 35.2517 21.5674 35.4755 22.4691 35.9164C23.3707 36.3573 24.1144 36.9826 24.6935 37.7855L24.7001 37.7789Z" fill="#A3A3A3"/>
<path d="M38.0519 35.5405L43.6591 47.571H42.3626L40.4738 43.6157H35.2944L33.4187 47.571H32.0762L37.7558 35.5405H38.0519ZM37.9005 38.094L35.8406 42.4508H39.9539L37.9005 38.094Z" fill="#A3A3A3"/>
<path d="M51.5443 35.541H53.9399C55.3153 35.541 56.2433 35.6002 56.7171 35.7187C57.4016 35.8898 57.9676 36.232 58.4019 36.7585C58.8363 37.285 59.0535 37.9431 59.0535 38.7395C59.0535 39.5358 58.8429 40.2005 58.4151 40.7204C57.9873 41.2403 57.4016 41.5891 56.6579 41.7734C56.1117 41.905 55.0916 41.9708 53.5976 41.9708H52.7421V47.5649H51.5377V35.5344L51.5443 35.541ZM52.7487 36.719V40.7994L54.7823 40.8257C55.6049 40.8257 56.2104 40.7533 56.5921 40.602C56.9738 40.4506 57.2765 40.2071 57.4937 39.878C57.7109 39.5424 57.8228 39.1673 57.8228 38.7592C57.8228 38.3512 57.7109 37.9892 57.4937 37.6536C57.2765 37.3179 56.987 37.081 56.6316 36.9362C56.2762 36.798 55.6905 36.7256 54.8744 36.7256H52.7487V36.719Z" fill="#A3A3A3"/>
<path d="M67.3187 35.5405H68.5231V47.571H67.3187V35.5405Z" fill="#A3A3A3"/>
<path d="M77.5532 36.7186V35.5405H84.141V36.7186H81.4559V47.571H80.2318V36.7186H77.5466H77.5532Z" fill="#A3A3A3"/>
<path d="M95.3806 35.5405L100.988 47.571H99.6913L97.8025 43.6157H92.6231L90.7475 47.571H89.4049L95.0911 35.5405H95.3872H95.3806ZM95.2293 38.094L93.1694 42.4508H97.2826L95.2293 38.094Z" fill="#A3A3A3"/>
<path d="M107.149 35.541H108.353V46.4066H112.98V47.5649H107.149V35.5344V35.541Z" fill="#A3A3A3"/>
</g>
<defs>
<clipPath id="clip0_171_5683">
<rect width="104.041" height="33.762" fill="white" transform="translate(11.9395 14.1191)"/>
</clipPath>
</defs>
</svg>
