<svg width="181" height="62" viewBox="0 0 181 62" fill="none" xmlns="http://www.w3.org/2000/svg">
<g clip-path="url(#clip0_171_5654)">
<path d="M76.2329 38.0824C73.0944 41.7771 69.4496 43.2452 65.7544 43.2452C58.7687 43.2452 53.2004 38.2338 53.2004 31.6533C53.2004 25.1233 58.5157 20.0613 65.5012 20.0613C69.1966 20.0613 72.8411 21.5293 75.9796 25.2245L71.3225 28.5148C69.6521 26.1359 67.7286 25.1739 65.5012 25.1739C61.9072 25.1739 58.9711 28.0594 58.9711 31.6533C58.9711 35.2977 62.1602 38.1326 65.7544 38.1326C67.9816 38.1326 69.9559 37.1714 71.677 34.9941L76.2329 38.0824Z" fill="#A3A3A3"/>
<path d="M78.8125 11H84.634V42.79H78.8125V11Z" fill="#A3A3A3"/>
<path d="M100.022 20.0613C107.007 20.0613 112.576 25.1233 112.576 31.6533C112.576 38.1836 107.007 43.2452 100.022 43.2452C93.0363 43.2452 87.4174 38.1836 87.4174 31.6533C87.4174 25.1233 93.0363 20.0613 100.022 20.0613ZM100.022 38.335C103.666 38.335 107.007 35.3989 107.007 31.6533C107.007 27.9075 103.666 24.9715 100.022 24.9715C96.3264 24.9715 93.0363 27.9075 93.0363 31.6533C93.0363 35.3989 96.3264 38.335 100.022 38.335Z" fill="#A3A3A3"/>
<path d="M111.652 20.5166H118.486L124.004 32.4127L129.977 20.5166H136.305L124.004 44.1568L111.652 20.5166Z" fill="#A3A3A3"/>
<path d="M156.495 40.2589C154.268 42.1318 151.18 43.2452 147.941 43.2452C140.955 43.2452 135.336 38.1836 135.336 31.6533C135.336 25.1233 140.449 20.0613 147.434 20.0613C154.42 20.0613 158.975 25.1233 158.975 31.6533V33.3238H141.157C141.967 36.2597 144.802 38.335 147.941 38.335C149.864 38.335 151.535 37.7277 153.053 36.1585L156.495 40.2589ZM152.851 28.5654C151.99 26.5407 150.067 24.9715 147.434 24.9715C144.853 24.9715 142.727 26.3889 141.664 28.5654H152.851Z" fill="#A3A3A3"/>
<path d="M161.83 30.2864C161.83 24.9713 165.88 20.5166 172.46 20.5166V25.7304C169.626 25.7304 167.601 27.4519 167.601 30.9953V42.7899H161.83V30.2864Z" fill="#A3A3A3"/>
<path d="M26.8985 21.433C26.8985 16.459 22.8614 12.4202 17.8837 12.4202C12.9072 12.4202 8.8728 16.4538 8.8728 21.4279C8.8728 26.4019 12.9071 30.4459 17.886 30.4459H26.8985V21.433Z" fill="#A3A3A3"/>
<path d="M29.4266 21.433C29.4266 16.459 33.4637 12.4202 38.4414 12.4202C43.4179 12.4202 47.4523 16.4538 47.4523 21.4278C47.4523 26.4019 43.4179 30.4458 38.4391 30.4458H29.4266V21.433Z" fill="#A3A3A3"/>
<path d="M29.4266 41.9873C29.4266 46.9662 33.4626 51.0001 38.4422 51.0001C43.4164 51.0001 47.4523 46.9692 47.4523 41.9902C47.4523 37.016 43.4164 32.9744 38.4391 32.9744H29.4266V41.9873Z" fill="#A3A3A3"/>
<path d="M26.8983 41.9873C26.8983 46.9662 22.8623 51.0001 17.8827 51.0001C12.9086 51.0001 8.87256 46.9692 8.87256 41.9902C8.87256 37.016 12.9085 32.9744 17.8857 32.9744H26.8983V41.9873ZM17.8827 48.4586C21.4598 48.4586 24.37 45.557 24.37 41.9902V35.5041H17.8909C14.3123 35.5041 11.4006 38.425 11.4006 41.9902C11.4006 45.557 14.3083 48.4586 17.8827 48.4586Z" fill="#A3A3A3"/>
</g>
<defs>
<clipPath id="clip0_171_5654">
<rect width="164" height="40" fill="white" transform="translate(8.87256 11)"/>
</clipPath>
</defs>
</svg>
