<svg width="133" height="62" viewBox="0 0 133 62" fill="none" xmlns="http://www.w3.org/2000/svg">
<g clip-path="url(#clip0_171_5722)">
<path d="M75.97 34.5537C70.6748 34.5537 66.2587 38.8832 66.2587 44.2997C66.2587 49.4035 70.422 53.9483 76.01 53.9483C79.9048 53.9483 82.37 51.6406 83.161 50.7716L81.8152 49.4548C81.3611 49.9942 79.3957 52.0677 76.01 52.0677C71.4459 52.0677 68.1479 48.3911 68.1479 44.2997C68.1479 39.8961 71.7053 36.4347 75.9695 36.4347C79.6053 36.4347 81.4976 38.6815 81.4976 38.6815C81.662 38.8661 81.8926 38.979 82.1398 38.9961C82.3869 39.0131 82.6309 38.9329 82.8193 38.7726C83.0076 38.6124 83.1253 38.3849 83.1469 38.1392C83.1686 37.8934 83.0925 37.649 82.9351 37.4586C82.9351 37.4586 80.4117 34.5537 75.97 34.5537ZM9.86912 34.5537C4.57441 34.5537 0.158264 38.8832 0.158264 44.2997C0.158264 49.4035 4.32119 53.9483 9.90964 53.9483C13.8044 53.9483 16.2696 51.6406 17.0601 50.7716L15.7143 49.4548C15.2603 49.9942 13.2948 52.0677 9.90964 52.0677C5.34508 52.0677 2.04706 48.3911 2.04706 44.2997C2.04706 39.8961 5.60446 36.4347 9.86912 36.4347C13.5049 36.4347 15.3972 38.6815 15.3972 38.6815C15.5622 38.8638 15.7922 38.9747 16.0381 38.9906C16.2841 39.0066 16.5265 38.9263 16.7139 38.7668C16.9012 38.6074 17.0187 38.3814 17.0411 38.1371C17.0636 37.8927 16.9893 37.6492 16.8342 37.4586C16.8342 37.4586 14.3108 34.5537 9.86912 34.5537ZM29.8981 34.5405C25.0663 34.5405 20.1569 38.3259 20.1569 44.3234C20.1569 49.7863 24.688 53.9417 29.9721 53.9417C36.0163 53.9417 39.6328 48.837 39.6328 44.2558C39.6328 39.23 35.5302 34.5405 29.8981 34.5405ZM29.8981 36.4212C34.475 36.4212 37.7435 40.249 37.7435 44.2563C37.7435 47.8588 34.9484 52.0611 29.9721 52.0611C25.6727 52.0611 22.0457 48.7563 22.0457 44.3234C22.0457 39.3388 26.0417 36.4212 29.8981 36.4212ZM59.4521 34.5269C59.2717 34.5296 59.0961 34.5852 58.9473 34.6868C58.7985 34.7883 58.683 34.9313 58.6154 35.0978L52.9354 48.9611L47.2624 35.1009C47.1871 34.9187 47.0547 34.7657 46.8849 34.6646C46.7151 34.5634 46.517 34.5196 46.3202 34.5397C46.1234 34.5598 45.9384 34.6426 45.7927 34.7759C45.647 34.9092 45.5485 35.0858 45.5119 35.2794L42.2565 52.8999C42.2348 53.0179 42.2367 53.139 42.262 53.2563C42.2872 53.3736 42.3355 53.4847 42.4039 53.5834C42.4723 53.6822 42.5596 53.7665 42.6608 53.8316C42.762 53.8967 42.875 53.9414 42.9935 53.963C43.112 53.9846 43.2336 53.9828 43.3514 53.9576C43.4692 53.9325 43.5809 53.8844 43.68 53.8163C43.7792 53.7482 43.8639 53.6612 43.9293 53.5605C43.9947 53.4598 44.0395 53.3472 44.0612 53.2292L46.7498 38.6872L52.0859 51.7283C52.1545 51.8967 52.2721 52.0409 52.4235 52.1424C52.5749 52.2439 52.7533 52.2981 52.9358 52.2981C53.1183 52.2981 53.2967 52.2439 53.4481 52.1424C53.5995 52.0409 53.7171 51.8967 53.7857 51.7283L59.1285 38.674L61.9381 53.8405H63.8066L60.3664 35.2754C60.2858 34.8369 59.8996 34.5212 59.4521 34.5265V34.5269ZM94.1199 34.5068C93.9405 34.5101 93.7661 34.5656 93.618 34.6664C93.47 34.7672 93.3548 34.9089 93.2867 35.0742L86.0587 52.7329C85.9665 52.9573 85.9677 53.209 86.0619 53.4326C86.1562 53.6562 86.3357 53.8333 86.5611 53.9251C86.6728 53.9705 86.7923 53.9936 86.9129 53.9931C87.0334 53.9925 87.1527 53.9683 87.2639 53.9219C87.4885 53.828 87.6664 53.6492 87.7586 53.4248L94.1366 37.8383L100.69 53.8479H102.674L94.987 35.0742C94.9169 34.9035 94.7965 34.7579 94.6417 34.6567C94.487 34.5554 94.305 34.5031 94.1199 34.5068Z" fill="#A3A3A3"/>
<path d="M89.8613 44.8134V46.694H98.0612V44.8134H89.8613ZM111.238 34.5671C109.886 34.5671 108.533 34.9061 107.457 35.6918C106.38 36.478 105.632 37.7728 105.632 39.3562C105.632 40.736 106.148 41.8634 107.018 42.6509C107.889 43.4384 109.009 43.9707 110.408 44.6898L110.422 44.6959C111.843 45.3948 113.095 45.9596 113.896 46.58C114.697 47.2009 115.07 47.7442 115.07 48.8132C115.07 49.8533 114.667 50.6079 114.01 51.1678C113.353 51.7273 112.413 52.0641 111.389 52.0641C108.961 52.0641 107.14 50.4965 106.499 49.8576L105.102 51.1275C105.897 51.9457 108.165 53.9447 111.389 53.9447C112.823 53.9447 114.198 53.4843 115.238 52.5981C116.279 51.7124 116.958 50.3737 116.958 48.8132C116.958 47.1926 116.143 45.9412 115.056 45.0993C113.972 44.2588 112.643 43.6905 111.271 43.0166L111.258 43.01C109.855 42.2896 108.846 41.7634 108.29 41.2605C107.731 40.7549 107.521 40.3546 107.521 39.3562C107.521 38.3161 107.916 37.6886 108.577 37.2063C109.236 36.7249 110.212 36.4478 111.238 36.4478C113.059 36.4478 114.598 37.4387 114.598 37.4387C114.7 37.5152 114.818 37.5701 114.942 37.5999C115.067 37.6298 115.197 37.6341 115.323 37.6125C115.449 37.5909 115.57 37.5439 115.678 37.4744C115.785 37.4049 115.877 37.3142 115.949 37.208C116.02 37.1019 116.069 36.9823 116.092 36.8567C116.115 36.7312 116.113 36.6022 116.085 36.4776C116.056 36.353 116.003 36.2355 115.927 36.1323C115.852 36.029 115.756 35.9421 115.646 35.8769C115.646 35.8769 113.732 34.5671 111.238 34.5671ZM120.247 34.6645C119.996 34.6645 119.756 34.7635 119.579 34.9399C119.402 35.1162 119.302 35.3554 119.302 35.6048C119.302 35.8542 119.402 36.0933 119.579 36.2697C119.756 36.446 119.996 36.5451 120.247 36.5451H131.139C131.389 36.5486 131.631 36.4528 131.811 36.2789C131.99 36.105 132.093 35.8672 132.097 35.6177C132.1 35.3683 132.004 35.1277 131.829 34.9488C131.655 34.77 131.416 34.6675 131.165 34.664L120.247 34.6645Z" fill="#A3A3A3"/>
<path d="M124.818 35.8467V53.8443H126.598V35.8467H124.818Z" fill="#A3A3A3"/>
<path d="M53.1692 13.4749C51.7622 14.7399 51.2496 17.6066 53.7862 19.282L63.9053 26.1779L58.9986 15.013C57.9707 12.3782 55.1584 11.8034 53.1692 13.4749Z" fill="#A3A3A3"/>
<path d="M61.8791 8.04642C60.2343 8.07975 57.7646 10.0253 58.8638 12.9964L63.9383 24.8834L65.721 12.3803C66.1341 9.27371 63.767 7.83946 61.8791 8.04642Z" fill="#A3A3A3"/>
<path d="M66.5132 11.9037H67.4724C67.4724 11.9037 67.985 11.9037 68.055 12.1432C67.6771 12.4501 66.6493 12.4878 66.7854 14.1242L68.3989 24.8813L73.4378 12.9635C74.4691 10.302 72.3051 8.0798 70.3859 8.0114C70.2954 8.00437 70.2046 8.00056 70.1138 8C68.3906 8 66.4159 9.24395 66.5128 11.9037" fill="#A3A3A3"/>
<path d="M73.2361 15.1146L68.4694 26.1453L78.5849 19.213C80.9163 17.5701 80.5402 14.9436 79.2354 13.6453C78.688 13.0345 77.683 12.5623 76.6195 12.5623C75.3618 12.5623 74.016 13.2248 73.2361 15.1142" fill="#A3A3A3"/>
<path d="M77.4523 20.7829L67.9524 27.374H79.6494C82.0495 27.374 83.5917 24.9159 82.906 22.6604C82.4467 21.2433 81.0881 20.1304 79.5107 20.1287C78.8479 20.1287 78.1441 20.3277 77.4523 20.7829Z" fill="#A3A3A3"/>
<path d="M52.8962 27.3741H64.4209L54.9188 20.783C52.7231 19.382 50.2552 20.2016 49.3639 22.5263C48.6086 25.1879 50.4948 27.3741 52.8962 27.3741Z" fill="#A3A3A3"/>
</g>
<defs>
<clipPath id="clip0_171_5722">
<rect width="132" height="46" fill="white" transform="translate(0.127441 8)"/>
</clipPath>
</defs>
</svg>
