<svg width="121" height="62" viewBox="0 0 121 62" fill="none" xmlns="http://www.w3.org/2000/svg">
<g clip-path="url(#clip0_171_5685)">
<path fill-rule="evenodd" clip-rule="evenodd" d="M61.4294 28.4999C60.4419 27.5999 59.3557 26.7999 58.0719 26.2999C56.7882 25.7999 55.4057 25.5999 54.0232 25.5999C52.6407 25.5999 51.2582 25.8999 49.9744 26.3999C48.6907 26.8999 47.5057 27.5999 46.5182 28.5999C45.5307 29.5999 44.7407 30.6999 44.1482 32.0999C43.5557 33.4999 43.2594 34.8999 43.2594 36.6999C43.2594 38.4999 43.5557 39.9999 44.1482 41.3999C44.7407 42.7999 45.5307 43.9999 46.5182 44.9999C47.5057 45.9999 48.6907 46.6999 49.9744 47.1999C51.2582 47.6999 52.7394 47.9999 54.2207 47.9999C55.3069 47.9999 56.3932 47.8999 57.4794 47.5999C58.5657 47.2999 59.5532 46.8999 60.4419 46.3999C61.3307 45.8999 62.2194 45.1999 62.9107 44.2999C63.5032 43.4999 63.9969 42.5999 64.2932 41.5999C64.3919 41.3999 64.1944 41.2999 64.0957 41.2999H59.4544C59.3557 41.2999 59.2569 41.3999 59.2569 41.3999C58.7632 42.2999 58.0719 42.8999 57.2819 43.1999C56.3932 43.5999 55.4057 43.7999 54.5169 43.7999C53.0357 43.7999 51.7519 43.2999 50.5669 42.2999C49.4807 41.2999 48.7894 39.9999 48.5919 38.2999H64.3919C64.4907 38.2999 64.6882 38.1999 64.6882 37.9999V37.0999C64.6882 35.1999 64.3919 33.4999 63.7994 32.0999C63.1082 30.6999 62.3182 29.4999 61.4294 28.4999ZM48.3944 34.5999C48.5919 33.0999 49.1844 31.8999 50.2707 31.0999C51.2582 30.1999 52.5419 29.7999 53.9244 29.7999C55.4057 29.7999 56.5907 30.1999 57.5782 31.0999C58.5657 31.9999 59.0594 33.0999 59.1582 34.5999H48.3944ZM77.8219 26.0999H73.1807V21.1999C73.1807 21.0999 73.0819 20.8999 72.8844 20.8999H68.2432C68.1444 20.8999 67.9469 20.9999 67.9469 21.1999V26.0999H64.6882C64.5894 26.0999 64.3919 26.1999 64.3919 26.3999V29.8999C64.3919 29.9999 64.4907 30.1999 64.6882 30.1999H67.9469V41.7999C67.9469 44.0999 68.4407 45.6999 69.5269 46.3999C70.6132 47.1999 71.9957 47.4999 73.7732 47.4999H75.9457C76.4394 47.4999 77.0319 47.4999 77.7232 47.3999C77.8219 47.3999 77.9207 47.2999 77.9207 47.0999V43.4999C77.9207 43.3999 77.8219 43.1999 77.6244 43.1999H75.3532C74.4644 43.1999 73.8719 42.9999 73.5757 42.6999C73.1807 42.3999 72.9832 41.6999 72.9832 40.4999V30.1999H77.8219C77.9207 30.1999 78.1182 30.0999 78.1182 29.8999V26.3999C78.0194 26.2999 77.9207 26.0999 77.8219 26.0999ZM95.5969 36.7999C94.2144 35.7999 92.4369 35.0999 90.0669 34.6999L87.9932 34.2999C86.8082 34.0999 85.9194 33.7999 85.3269 33.4999C84.7344 33.1999 84.4382 32.6999 84.4382 31.9999C84.4382 31.2999 84.8332 30.6999 85.5244 30.2999C86.2157 29.8999 87.1044 29.5999 88.0919 29.5999C89.1782 29.5999 90.1657 29.7999 90.8569 30.2999C91.5482 30.6999 92.0419 31.2999 92.3382 32.1999C92.3382 32.2999 92.4369 32.3999 92.5357 32.3999H96.8807C97.0782 32.3999 97.1769 32.2999 97.1769 32.0999C96.9794 31.1999 96.6832 30.2999 96.1894 29.5999C95.6957 28.7999 95.0044 28.0999 94.2144 27.4999C93.4244 26.8999 92.5357 26.4999 91.4494 26.1999C90.3632 25.8999 89.3757 25.7999 88.1907 25.7999C87.0057 25.7999 85.9194 25.9999 84.8332 26.2999C83.7469 26.5999 82.8582 27.0999 82.0682 27.5999C81.2782 28.1999 80.6857 28.8999 80.1919 29.6999C79.6982 30.5999 79.5007 31.4999 79.5007 32.5999C79.5007 34.2999 80.0932 35.5999 81.2782 36.5999C82.4632 37.5999 84.1419 38.2999 86.3144 38.6999L88.3882 39.0999C89.7707 39.2999 90.8569 39.6999 91.5482 39.9999C92.2394 40.3999 92.6344 40.9999 92.6344 41.6999C92.6344 42.5999 92.2394 43.1999 91.4494 43.5999C90.6594 43.7999 89.6719 43.9999 88.6844 43.9999C87.4994 43.9999 86.4132 43.6999 85.5244 43.1999C84.7344 42.6999 84.1419 41.8999 83.9444 40.8999C83.9444 40.7999 83.8457 40.6999 83.7469 40.6999H79.3032C79.1057 40.6999 79.0069 40.7999 79.0069 40.9999C79.2044 42.0999 79.5007 43.0999 79.9944 43.8999C80.4882 44.7999 81.2782 45.5999 82.0682 46.1999C82.9569 46.7999 83.9444 47.2999 85.0307 47.4999C86.1169 47.7999 87.3019 47.8999 88.5857 47.8999C89.7707 47.8999 90.8569 47.6999 91.9432 47.3999C93.0294 47.0999 94.0169 46.6999 94.8069 46.0999C95.5969 45.4999 96.2882 44.7999 96.7819 43.8999C97.2757 42.9999 97.5719 41.9999 97.5719 40.8999C97.6707 39.1999 96.9794 37.7999 95.5969 36.7999ZM40.0994 19.1999C40.1982 19.0999 40.1982 18.9999 40.1982 18.9999L39.3094 16.3999C39.2107 16.1999 39.0132 16.1999 38.9144 16.2999L34.0757 21.1999V15.4999C34.0757 15.3999 33.9769 15.2999 33.9769 15.2999L31.5082 13.9999C31.3107 13.8999 31.1132 13.9999 31.1132 14.1999V21.1999L27.1632 17.1999C27.0644 17.0999 26.9657 17.0999 26.8669 17.0999L24.3982 17.8999C24.2007 17.9999 24.2007 18.1999 24.2994 18.2999L29.1382 23.1999H23.5094C23.4107 23.1999 23.3119 23.2999 23.3119 23.2999L22.1269 25.6999C22.0282 25.8999 22.1269 26.0999 22.3244 26.0999H29.2369L25.1882 30.1999C25.0894 30.2999 25.0894 30.3999 25.0894 30.4999L25.8794 32.9999C25.9782 33.1999 26.1757 33.1999 26.2744 33.0999L40.0994 19.1999ZM42.9632 23.2999H38.2232C38.1244 23.2999 38.1244 23.2999 38.0257 23.3999L31.3107 30.1999C31.3107 30.1999 31.2119 30.2999 31.2119 30.3999V33.9999C31.2119 34.0999 31.3107 34.1999 31.3107 34.1999L33.6807 35.3999C33.8782 35.4999 34.0757 35.3999 34.0757 35.1999V28.1999L38.1244 32.2999C38.2232 32.3999 38.3219 32.3999 38.4207 32.3999L40.8894 31.5999C41.0869 31.4999 41.0869 31.2999 40.9882 31.1999L36.1494 26.2999H41.8769C41.9757 26.2999 42.0744 26.1999 42.0744 26.1999L43.2594 23.7999C43.2594 23.4999 43.1607 23.2999 42.9632 23.2999Z" fill="#A3A3A3"/>
</g>
<defs>
<clipPath id="clip0_171_5685">
<rect width="79" height="34" fill="white" transform="translate(20.5469 14)"/>
</clipPath>
</defs>
</svg>
