<svg width="165" height="62" viewBox="0 0 165 62" fill="none" xmlns="http://www.w3.org/2000/svg">
<g clip-path="url(#clip0_171_5666)">
<mask id="mask0_171_5666" style="mask-type:luminance" maskUnits="userSpaceOnUse" x="12" y="18" width="142" height="30">
<path d="M153.139 18.2002H12.0404V47.0002H153.139V18.2002Z" fill="white"/>
</mask>
<g mask="url(#mask0_171_5666)">
<path d="M32.1798 43.9181H17.2506C14.3783 43.9181 12.0404 41.5473 12.0404 38.6232V23.4837C12.0404 20.571 14.3783 18.2002 17.2506 18.2002H32.1798C35.0632 18.2002 37.39 20.571 37.39 23.4837V38.6232C37.4011 41.5473 35.0632 43.9181 32.1798 43.9181Z" fill="#A3A3A3"/>
<path d="M19.7871 38.9171V36.4221C19.7871 36.2188 19.6312 36.0608 19.4309 36.0608H16.9705C16.7701 36.0608 16.6143 36.2188 16.6143 36.4221V38.9171C16.6143 39.1203 16.7701 39.2784 16.9705 39.2784H19.4309C19.6312 39.2784 19.7871 39.1203 19.7871 38.9171Z" fill="black"/>
<path d="M32.8264 36.7717V24.4772C32.8264 23.5627 32.1027 22.8289 31.2009 22.8289H19.0772C18.8323 22.8289 18.6876 22.9192 18.5317 23.0772L16.1159 25.5497C15.9378 25.7303 16.0602 26.0013 16.3274 26.0013H27.2933L20.4911 32.8993C20.3686 33.0234 20.313 33.1476 20.313 33.3509V35.1685C20.313 35.383 20.4577 35.5298 20.6692 35.5298H22.4616C22.6731 35.5298 22.7956 35.4734 22.9069 35.3492L29.7092 28.4511V39.5715C29.7092 39.8424 29.9763 39.9666 30.1545 39.786L32.5926 37.3249C32.7373 37.1668 32.8264 37.02 32.8264 36.7717Z" fill="black"/>
<path d="M69.6311 33.5993L74.5964 26.6449C74.7411 26.4304 74.6298 26.2158 74.3849 26.2158H71.6796C71.5349 26.2158 71.3456 26.2723 71.2565 26.4304L67.9835 31.2737L64.6325 26.4304C64.5434 26.2836 64.3653 26.2158 64.2094 26.2158H61.326C61.1813 26.2158 61.0811 26.34 61.0811 26.4642C61.0811 26.5207 61.0811 26.5884 61.1367 26.6449L66.1132 33.6219L60.6246 41.2763C60.4799 41.4908 60.5912 41.7053 60.8028 41.7053H63.5303C63.6751 41.7053 63.8643 41.6489 63.9534 41.4908L67.7497 35.9476L71.6017 41.4908C71.6907 41.6489 71.8688 41.7053 72.0247 41.7053H74.9304C75.0751 41.7053 75.1753 41.5811 75.1753 41.4569C75.1753 41.4005 75.1419 41.3328 75.1197 41.2763L69.6311 33.5993Z" fill="#A3A3A3"/>
<path d="M58.5427 20.4016C58.7542 20.4016 58.8989 20.5484 58.8989 20.7629V22.8289C58.8989 23.0434 58.7542 23.1902 58.5427 23.1902H48.8459V29.3317H57.5519C57.7634 29.3317 57.9081 29.4785 57.9081 29.6931V31.7477C57.9081 31.9623 57.7634 32.109 57.5519 32.109H48.8459V38.8377H58.5427C58.7542 38.8377 58.8989 38.9844 58.8989 39.199V41.3327C58.8989 41.5472 58.7542 41.6939 58.5427 41.6939H47.1982C46.3299 41.6939 45.6731 41.0279 45.6731 40.1473V21.9483C45.6731 21.0677 46.3299 20.4016 47.1982 20.4016H58.5427Z" fill="#A3A3A3"/>
<path d="M85.3944 25.7305C82.4557 25.7305 80.8967 27.04 79.995 28.2594V26.5772C79.995 26.3626 79.8507 26.2159 79.6392 26.2159H77.2676C77.0561 26.2159 76.9114 26.3739 76.9114 26.5772V46.6276C76.9114 46.8422 77.0561 46.989 77.2676 46.989H79.6721C79.8836 46.989 80.0286 46.8422 80.0286 46.6276V39.7184C80.8967 40.9376 82.4557 42.157 85.3944 42.157C90.1707 42.157 92.9536 38.5104 92.9536 33.9381C92.9536 29.3657 90.1707 25.7305 85.3944 25.7305ZM84.86 39.5377C81.9213 39.5377 79.9064 37.5282 79.9064 33.9719C79.9064 30.4157 81.9213 28.3383 84.86 28.3383C87.7993 28.3383 89.7813 30.4044 89.7813 33.9719C89.7813 37.5282 87.7993 39.5377 84.86 39.5377Z" fill="#A3A3A3"/>
<path d="M102.417 25.7305C98.2421 25.7305 94.9133 28.7786 94.9133 33.8252C94.9133 38.9958 97.852 42.1683 102.806 42.1683C105.656 42.1683 108.028 40.8925 109.497 39.12C109.586 39.0297 109.62 38.9394 109.62 38.849C109.62 38.7588 109.586 38.6684 109.497 38.5781L108.117 37.2008C108.028 37.1104 107.938 37.0766 107.85 37.0766C107.76 37.0766 107.671 37.133 107.583 37.2234C106.447 38.4765 104.966 39.5377 102.84 39.5377C99.7333 39.5377 98.2421 37.5959 98.0078 34.7961H109.53C109.742 34.7961 109.887 34.638 109.887 34.4348V33.8252C109.887 29.1963 107.126 25.7305 102.417 25.7305ZM98.1192 32.4252C98.4758 29.885 99.789 28.2254 102.395 28.2254C105.066 28.2254 106.48 29.7721 106.68 32.4252H98.1192Z" fill="#A3A3A3"/>
<path d="M152.793 26.2155H150.422C150.21 26.2155 150.065 26.3623 150.065 26.5768V28.2816C149.163 27.0622 147.605 25.7527 144.599 25.7527C139.89 25.7527 137.096 29.3993 137.096 33.9716C137.096 38.5439 139.89 42.1905 144.599 42.1905C147.605 42.1905 149.163 40.8809 150.065 39.6616V41.3325C150.065 41.5469 150.21 41.6937 150.422 41.6937H152.793C153.004 41.6937 153.149 41.5469 153.149 41.3325V26.5768C153.16 26.3623 153.004 26.2155 152.793 26.2155ZM145.2 39.5712C142.261 39.5712 140.279 37.5053 140.279 33.9377C140.279 30.3815 142.261 28.3719 145.2 28.3719C148.139 28.3719 150.154 30.3815 150.154 33.9377C150.154 37.5053 148.139 39.5712 145.2 39.5712Z" fill="#A3A3A3"/>
<path d="M127.534 20.4016H125.129C124.918 20.4016 124.774 20.5484 124.774 20.7629V28.2818C123.871 27.0625 122.346 25.7529 119.341 25.7529C114.631 25.7529 111.837 29.3995 111.837 33.9718C111.837 38.5441 114.631 42.1907 119.341 42.1907C122.346 42.1907 123.905 40.8811 124.806 39.6618V41.3327C124.806 41.5472 124.952 41.6939 125.163 41.6939H127.534C127.746 41.6939 127.89 41.5472 127.89 41.3327V20.7629C127.89 20.5484 127.746 20.4016 127.534 20.4016ZM119.942 39.5715C117.003 39.5715 115.021 37.5055 115.021 33.938C115.021 30.3817 117.003 28.3721 119.942 28.3721C122.881 28.3721 124.896 30.3817 124.896 33.938C124.896 37.5055 122.881 39.5715 119.942 39.5715Z" fill="#A3A3A3"/>
<path d="M134.069 20.4016C134.281 20.4016 134.425 20.5484 134.425 20.7629V23.2579C134.425 23.4724 134.281 23.6192 134.069 23.6192H131.608C131.397 23.6192 131.253 23.4724 131.253 23.2579V20.7629C131.253 20.5484 131.397 20.4016 131.608 20.4016H134.069Z" fill="#A3A3A3"/>
<path d="M134.045 26.2158C134.256 26.2158 134.401 26.3626 134.401 26.5771V41.3328C134.401 41.5472 134.256 41.694 134.045 41.694H131.64C131.428 41.694 131.283 41.5472 131.283 41.3328V26.5771C131.283 26.3626 131.428 26.2158 131.64 26.2158H134.045Z" fill="#A3A3A3"/>
</g>
</g>
<defs>
<clipPath id="clip0_171_5666">
<rect width="142" height="32" fill="white" transform="translate(11.8726 15)"/>
</clipPath>
</defs>
</svg>
