<svg width="116" height="58" viewBox="0 0 116 58" fill="none" xmlns="http://www.w3.org/2000/svg">
<g clip-path="url(#clip0_171_5691)">
<path d="M16.6597 42.7764V15.2233C24.2592 15.2233 30.4195 21.3915 30.4195 28.9999C30.4195 36.6082 24.2587 42.7764 16.6597 42.7764ZM8.34862 21.0409C5.14016 21.0409 2.53942 18.437 2.53942 15.2246H14.1582C14.1582 18.437 11.5571 21.0409 8.34862 21.0409ZM14.1493 42.7755H2.5484V28.4121C2.5484 25.2047 5.1451 22.6048 8.34862 22.6048C11.5521 22.6048 14.1488 25.2047 14.1488 28.4121L14.1493 42.7755ZM0.0469971 45.28H32.5676V12.7197H0.0469971V45.28Z" fill="#A3A3A3"/>
<path d="M113.267 12.5566H113.805V11.4693L114.418 12.5566H114.849L115.462 11.4693V12.5566H116V10.3293H115.488L114.635 11.8475L113.781 10.3293H113.269V12.5566H113.267ZM111.737 12.5566H112.275V10.8704H113.032V10.3293H110.98V10.8704H111.74V12.5566H111.737ZM106.686 14.5791L103.77 20.9694L100.771 14.5791H98.1737L102.583 23.6091L100.369 28.4813H102.763L109.08 14.5764H106.686V14.5791ZM67.5166 30.7454H69.7668V28.4813H67.5166V30.7454ZM67.5166 43.2083H69.7668V32.731H67.5166V43.2083ZM75.7888 29.9232H73.5388V32.731H71.5601V34.6589H73.5388V40.3979C73.5388 41.2909 73.7972 41.9869 74.3038 42.4938C75.6014 43.7914 78.1987 43.2004 78.5353 43.0559V41.0755C78.3131 41.1228 76.9634 41.4564 76.2773 41.0177C75.7287 40.6658 75.7888 40.0984 75.7888 39.5522V35.8146V34.6589H78.5382V32.731H75.7888V29.9232ZM38.0369 12.5934H40.2871V10.3293H38.0369V12.5934ZM38.0369 25.0537H40.2871V14.5764H38.0369V25.0537ZM62.6716 18.7342C62.5437 16.8878 61.1314 16.2154 59.9359 16.2154C58.4375 16.2154 57.1975 17.0349 56.9756 18.7342H62.6716ZM64.9244 20.4546H56.913C56.913 22.3037 58.3775 23.3385 60.0586 23.3385C61.322 23.3385 62.3557 22.787 62.8778 22.1304L62.9431 22.1724L64.6112 23.2493C63.5644 24.6755 61.9825 25.4109 60.0168 25.4109C56.9261 25.4109 54.6549 23.3333 54.6549 19.8689C54.6549 16.6146 56.9156 14.3269 59.9907 14.3269C65.282 14.3269 64.9688 20.0738 64.9218 20.4573M81.2347 11.7687H78.984V14.5764H77.0053V16.5043H78.984V22.2433C78.9868 23.1363 79.2423 23.8323 79.7489 24.3393C81.0465 25.6368 83.6439 25.0458 83.9804 24.9039V22.9236C83.759 22.9708 82.4093 23.3044 81.7225 22.8631C81.1746 22.5112 81.2347 21.9439 81.2347 21.3975V17.66V16.5043H83.9833V14.5764H81.2347V11.7687ZM50.554 30.7454H52.8041V28.4813H50.554V30.7454ZM50.554 43.2083H52.8041V32.731H50.554V43.2083ZM91.1046 43.2083H93.3937V28.4839H91.1046V43.2083ZM86.6458 38.3649L83.6468 38.7432C82.6886 38.8482 82.1118 39.3525 82.08 40.1063C82.0387 41.1018 82.9021 41.5168 83.8523 41.4695C85.4343 41.3907 86.6429 40.3585 86.6429 38.9769V38.3702L86.6458 38.3649ZM88.8958 36.3504V43.2056H86.6458V41.7611C85.938 42.8301 84.7714 43.4578 83.3356 43.4578C81.2318 43.4578 79.8169 42.0973 79.8169 40.1694C79.8169 38.3676 80.8403 37.204 83.1482 36.9204C83.9623 36.8205 85.8888 36.5973 86.1081 36.5684C86.3925 36.5316 86.711 36.445 86.711 36.0878V36.0536C86.711 35.1737 85.8317 34.475 84.4689 34.475C83.0302 34.475 82.2001 35.3654 81.8346 36.0799L80.1665 35.003C80.9575 33.4822 82.6155 32.4552 84.6433 32.4552C87.1184 32.4552 88.8987 33.7685 88.8987 36.3504M63.1963 37.9684C63.1963 35.9354 61.9877 34.6379 60.1343 34.6379C58.2808 34.6379 56.9678 35.9801 56.9678 37.9684C56.9678 39.9566 58.2391 41.2988 60.1343 41.2988C62.0294 41.2988 63.1963 39.9987 63.1963 37.9684ZM65.363 32.731V42.3652C65.363 45.7639 63.2485 47.6707 60.0038 47.6707C57.8893 47.6707 56.1482 46.8381 54.8612 45.6325L56.216 43.9437C57.2602 44.8551 58.414 45.425 59.8732 45.425C61.8127 45.425 63.1572 44.209 63.1572 42.4965V41.7401C62.4497 42.788 61.1576 43.3737 59.6591 43.3737C56.618 43.3737 54.6601 41.2357 54.6601 37.9473C54.6601 34.6589 56.6807 32.4789 59.6174 32.4789C61.1157 32.4789 62.4288 33.1277 63.0945 34.1756V32.731H65.363ZM68.6678 20.1106C68.6678 17.7231 69.5631 16.4649 71.2495 16.4649C72.7268 16.4649 73.5207 17.3658 73.5207 19.0206V25.0563H75.8098V18.6239C75.8098 15.9002 74.4369 14.3296 72.0404 14.3296C70.6021 14.3296 69.3961 14.9363 68.6051 16.1734V14.5817H66.4175V25.0589H68.6678V20.1132V20.1106ZM45.7012 37.9684C45.7012 35.9564 44.4508 34.6379 42.5974 34.6379C40.7439 34.6379 39.4727 35.9801 39.4727 37.9684C39.4727 39.9566 40.7231 41.2988 42.5974 41.2988C44.4717 41.2988 45.7012 39.9776 45.7012 37.9684ZM45.5968 28.4813H47.8678V43.2056H45.5968V41.719C44.7849 42.8511 43.5345 43.4578 42.0361 43.4578C39.1621 43.4578 37.1625 41.2147 37.1625 37.9684C37.1625 34.722 39.1412 32.4789 42.0152 32.4789C43.4719 32.4789 44.7014 33.0856 45.5968 34.2387V28.4813ZM50.6584 19.8164C50.6584 17.8044 49.408 16.4859 47.5546 16.4859C45.7012 16.4859 44.4299 17.8254 44.4299 19.8164C44.4299 21.8073 45.6803 23.1468 47.5546 23.1468C49.4288 23.1468 50.6584 21.8257 50.6584 19.8164ZM50.554 25.0537V23.5671C49.7421 24.6991 48.4917 25.3058 46.9934 25.3058C44.1192 25.3058 42.1196 23.0628 42.1196 19.8164C42.1196 16.57 44.0984 14.3269 46.9724 14.3269C48.429 14.3269 49.6586 14.9337 50.554 16.0867V10.3293H52.825V25.0537H50.554ZM85.9959 12.5934H88.2459V10.3293H85.9959V12.5934ZM85.9959 25.0537H88.2459V14.5764H85.9959V25.0537ZM94.485 14.5764H97.2336V16.5043H94.485V21.3975C94.485 21.9439 94.4278 22.5112 94.9757 22.8631C95.6625 23.3044 97.0122 22.9708 97.2336 22.9236V24.9039C96.8942 25.0484 94.2968 25.6394 93.0021 24.3393C92.4955 23.8323 92.2401 23.1363 92.2401 22.2433V16.5043H90.2586V14.5764H92.2372V11.7687H94.4879V14.5764H94.485Z" fill="#A3A3A3"/>
</g>
<defs>
<clipPath id="clip0_171_5691">
<rect width="115.953" height="56.9774" fill="white" transform="translate(0.046936 0.51123)"/>
</clipPath>
</defs>
</svg>
