<svg width="165" height="62" viewBox="0 0 165 62" fill="none" xmlns="http://www.w3.org/2000/svg">
<path fill-rule="evenodd" clip-rule="evenodd" d="M158.664 30.9782C158.664 29.0746 157.755 28.2632 155.623 28.2632H136.278V33.7644H155.623C157.727 33.7644 158.664 32.8658 158.664 30.9782ZM163.047 30.9782C163.047 33.7506 160.432 35.3033 157.973 35.3033H132.132V26.7244H157.973C160.432 26.7244 163.047 28.2153 163.047 30.9782ZM85.1868 28.2632H108.678V26.7244H82.8378C80.3774 26.7244 77.7641 28.2153 77.7641 30.9782C77.7641 33.7517 80.3774 35.3043 82.8378 35.3043H108.678V33.7644H85.1879C83.0842 33.7644 82.1459 32.8658 82.1459 30.9782C82.1459 29.0746 83.0549 28.2632 85.1868 28.2632ZM7.97806 33.7442C6.05094 33.7442 5.19256 32.9732 5.19256 31.2441V26.701H1.04694V31.2441C1.04694 33.8676 3.52194 35.2852 5.85181 35.2852H30.9753V33.7432H7.97694L7.97806 33.7442ZM65.1494 26.7244V33.7687H45.5609C43.6349 33.7687 42.7766 32.9977 42.7766 31.2675V26.7244H38.6309V31.2675C38.6309 33.8921 41.1059 35.3086 43.4358 35.3086H69.2962V26.7233H65.1506L65.1494 26.7244ZM118.391 35.5H122.416V26.5H118.391V35.4989V35.5Z" fill="#A3A3A3"/>
</svg>
