<svg width="120" height="62" viewBox="0 0 120 62" fill="none" xmlns="http://www.w3.org/2000/svg">
<path d="M42.8005 32.8996L42.1028 34.8764H42.0446C41.9284 34.4306 41.7152 33.7523 41.3663 32.9384L37.626 23.5392H33.9632V38.5198H36.3857V29.2756L36.3663 27.2213C36.347 26.8144 36.3082 26.5043 36.2888 26.2717H36.347C36.4632 26.8531 36.5989 27.2795 36.6958 27.5508L41.1919 38.481H42.8974L47.3547 27.4539C47.4516 27.202 47.5485 26.6981 47.6454 26.2717H47.7036L47.5873 28.9655V38.4616H50.1648V23.5004H46.6377L42.8005 32.8996ZM52.6067 27.7252H55.126V38.4616H52.6067V27.7252ZM53.8857 23.1903C53.4594 23.1903 53.1105 23.3454 52.8198 23.6167C52.5291 23.888 52.3741 24.2368 52.3741 24.6632C52.3714 24.8562 52.4097 25.0476 52.4866 25.2247C52.5634 25.4017 52.677 25.5605 52.8198 25.6903C53.1105 25.9616 53.4594 26.0973 53.8857 26.0973C54.3121 26.0973 54.6803 25.9423 54.9516 25.6903C55.0944 25.5605 55.208 25.4017 55.2849 25.2247C55.3617 25.0476 55.4001 24.8562 55.3974 24.6632C55.3974 24.2562 55.2423 23.9074 54.9516 23.6167C54.6997 23.3454 54.3315 23.1903 53.8857 23.1903ZM64.0601 27.6283C63.595 27.5314 63.1105 27.4733 62.6454 27.4733C61.502 27.4733 60.4555 27.7252 59.5834 28.2291C58.7113 28.733 58.0136 29.4306 57.5679 30.3027C57.1028 31.1942 56.8702 32.2213 56.8702 33.4035C56.8702 34.4306 57.1028 35.3415 57.5485 36.1748C57.9943 36.9888 58.6144 37.6477 59.4477 38.0934C60.2423 38.5392 61.1725 38.7717 62.2191 38.7717C63.4206 38.7717 64.4477 38.5198 65.2617 38.0547L65.2811 38.0353V35.7097L65.1842 35.7872C64.816 36.0585 64.3896 36.2911 63.9632 36.4268C63.5175 36.5818 63.1105 36.6593 62.7617 36.6593C61.7539 36.6593 60.9594 36.3686 60.3974 35.7291C59.816 35.1089 59.5253 34.2562 59.5253 33.1903C59.5253 32.0857 59.816 31.2136 60.4167 30.574C61.0175 29.9345 61.8121 29.6051 62.7811 29.6051C63.595 29.6051 64.4284 29.8764 65.1842 30.419L65.2811 30.4965V28.0353L65.2617 28.0159C64.9322 27.8802 64.564 27.7252 64.0601 27.6283ZM72.3741 27.5508C71.7539 27.5508 71.1725 27.7446 70.6687 28.1516C70.2423 28.5004 69.9516 29.0043 69.6997 29.6051H69.6803V27.7252H67.1609V38.4616H69.6803V32.9771C69.6803 32.0469 69.8741 31.2717 70.3005 30.7097C70.7268 30.1283 71.2694 29.8376 71.9284 29.8376C72.1609 29.8376 72.3935 29.8958 72.6842 29.9345C72.9555 30.012 73.1493 30.0896 73.285 30.1864L73.3819 30.264V27.7446L73.3237 27.7252C73.1493 27.6089 72.8005 27.5508 72.3741 27.5508ZM79.2346 27.4927C77.471 27.4927 76.0563 28.0159 75.0679 29.043C74.0601 30.0702 73.5756 31.4849 73.5756 33.2678C73.5756 34.9345 74.0795 36.2911 75.0485 37.2795C76.0175 38.2485 77.3353 38.7523 78.9826 38.7523C80.7074 38.7523 82.0834 38.2291 83.0718 37.1826C84.0795 36.1361 84.564 34.7407 84.564 33.0159C84.564 31.3105 84.0989 29.9539 83.1493 28.9655C82.2384 27.9771 80.9012 27.4927 79.2346 27.4927ZM81.2501 35.7485C80.785 36.3492 80.0485 36.6399 79.1377 36.6399C78.2268 36.6399 77.4904 36.3492 76.9671 35.7097C76.4439 35.1089 76.1919 34.2368 76.1919 33.1322C76.1919 31.9888 76.4632 31.1167 76.9671 30.4965C77.4904 29.8764 78.2074 29.5663 79.1183 29.5663C80.0098 29.5663 80.7074 29.857 81.2113 30.4578C81.7152 31.0585 81.9865 31.9306 81.9865 33.074C81.9477 34.2368 81.7346 35.1477 81.2501 35.7485ZM90.1842 32.1826C89.3896 31.8531 88.8857 31.6012 88.6532 31.388C88.4594 31.1942 88.3625 30.9229 88.3625 30.574C88.3625 30.2833 88.4787 29.9927 88.7694 29.7989C89.0601 29.6051 89.3896 29.5082 89.8741 29.5082C90.3005 29.5082 90.7462 29.5857 91.1725 29.702C91.5989 29.8182 91.9865 29.9927 92.2966 30.2252L92.3935 30.3027V27.9384L92.3353 27.919C92.0446 27.8027 91.657 27.6865 91.1919 27.5896C90.7268 27.512 90.3005 27.4733 89.9516 27.4733C88.7501 27.4733 87.7617 27.764 86.9865 28.4035C86.2113 29.0043 85.8431 29.8182 85.8431 30.7678C85.8431 31.2717 85.9206 31.7175 86.095 32.0857C86.2694 32.4539 86.5214 32.8027 86.8702 33.0934C87.2191 33.3647 87.7229 33.6748 88.4206 33.9655C89.002 34.2175 89.4477 34.4113 89.7191 34.5663C89.9904 34.7213 90.1648 34.8958 90.3005 35.0314C90.3974 35.1865 90.4555 35.3802 90.4555 35.6322C90.4555 36.3492 89.9129 36.6981 88.8082 36.6981C88.3819 36.6981 87.9361 36.6206 87.4129 36.4461C86.8896 36.2717 86.4051 36.0198 85.9981 35.7291L85.9012 35.6516V38.1128L85.9594 38.1322C86.3276 38.3066 86.7733 38.4229 87.316 38.5585C87.8586 38.6554 88.3431 38.733 88.7694 38.733C90.0679 38.733 91.1338 38.4423 91.8896 37.8027C92.6648 37.1826 93.0718 36.388 93.0718 35.3609C93.0718 34.6438 92.878 34.0043 92.4516 33.5198C91.8896 33.0547 91.1919 32.5702 90.1842 32.1826ZM99.7191 27.4927C97.9555 27.4927 96.5408 28.0159 95.5524 29.043C94.564 30.0702 94.0601 31.4849 94.0601 33.2678C94.0601 34.9345 94.564 36.2911 95.533 37.2795C96.502 38.2485 97.8198 38.7523 99.4671 38.7523C101.192 38.7523 102.568 38.2291 103.556 37.1826C104.564 36.1361 105.049 34.7407 105.049 33.0159C105.049 31.3105 104.583 29.9539 103.634 28.9655C102.723 27.9771 101.386 27.4927 99.7191 27.4927ZM101.715 35.7485C101.25 36.3492 100.514 36.6399 99.6028 36.6399C98.6725 36.6399 97.9555 36.3492 97.4322 35.7097C96.909 35.1089 96.657 34.2368 96.657 33.1322C96.657 31.9888 96.9284 31.1167 97.4322 30.4965C97.9555 29.8764 98.6725 29.5663 99.5834 29.5663C100.455 29.5663 101.173 29.857 101.676 30.4578C102.18 31.0585 102.452 31.9306 102.452 33.074C102.452 34.2368 102.2 35.1477 101.715 35.7485ZM118.518 29.7989V27.7252H115.979V24.5469L115.901 24.5663L113.498 25.2833L113.44 25.3027V27.7252H109.642V26.3686C109.642 25.7485 109.797 25.264 110.068 24.9539C110.339 24.6438 110.746 24.4888 111.25 24.4888C111.599 24.4888 111.967 24.5663 112.374 24.7407L112.471 24.7989V22.6089L112.413 22.5896C112.064 22.4733 111.599 22.3958 110.998 22.3958C110.242 22.3958 109.583 22.5702 108.983 22.8609C108.382 23.1903 107.936 23.6361 107.607 24.2368C107.277 24.8182 107.103 25.4771 107.103 26.233V27.7252H105.339V29.7795H107.103V38.4616H109.642V29.7989H113.44V35.3221C113.44 37.5896 114.506 38.733 116.638 38.733C116.987 38.733 117.355 38.6748 117.704 38.6167C118.072 38.5392 118.343 38.4423 118.498 38.3647L118.518 38.3454V36.2717L118.421 36.3492C118.266 36.4461 118.13 36.5237 117.897 36.5818C117.704 36.6399 117.529 36.6593 117.393 36.6593C116.89 36.6593 116.541 36.543 116.289 36.2523C116.056 35.981 115.94 35.5353 115.94 34.8764V29.7989H118.518Z" fill="#A3A3A3"/>
<path d="M1.4825 18.5H13.3623V30.3798H1.4825V18.5Z" fill="#A3A3A3"/>
<path d="M14.6028 18.5H26.4826V30.3798H14.6028V18.5Z" fill="#A3A3A3"/>
<path d="M1.4825 31.6199H13.3623V43.4997H1.4825V31.6199Z" fill="#A3A3A3"/>
<path d="M14.6028 31.6199H26.4826V43.4997H14.6028V31.6199Z" fill="#A3A3A3"/>
</svg>
