<svg width="121" height="62" viewBox="0 0 121 62" fill="none" xmlns="http://www.w3.org/2000/svg">
<g clip-path="url(#clip0_171_5706)">
<path d="M54.6114 46.0214H66.1409C67.1458 46.0214 68.3896 42.481 68.6286 41.8596C68.8676 41.2382 69.8725 37.5066 72.7426 37.5066C75.6128 37.5066 79.0576 38.1768 79.5356 36.5973C80.0136 35.0177 82.9652 26.5029 82.9652 25.6425C82.9652 24.7821 81.5443 22.7724 78.1961 20.6192C75.4694 18.8017 77.9571 13.635 78.3873 12.5824C78.8175 11.5297 78.6948 10.4629 78.0766 9.84367C77.4585 9.22444 69.5368 3.33098 68.5319 3.33098C67.5271 3.33098 66.8818 3.58193 65.9312 4.08491C64.9807 4.58789 62.4147 6.90182 60.4234 6.90182C58.4321 6.90182 54.9156 2.95728 53.2296 2.95728C51.5436 2.95728 43.1656 9.8252 43.0581 10.0577C42.9505 10.2902 42.8962 10.8116 42.8962 11.4569C42.8962 12.1022 44.1694 16.4443 44.1694 17.5742C44.1694 18.704 43.6317 19.9598 42.8962 20.6062C42.1607 21.2525 37.8816 23.4948 37.8816 25.1091C37.8816 26.7234 41.1743 35.4783 41.3894 36.0519C41.6045 36.6255 43.0754 37.2893 45.0667 37.2893C47.058 37.2893 51.1307 37.5402 51.8836 40.4104C52.6364 43.2805 53.1209 46.0192 54.6103 46.0192L54.6114 46.0214Z" stroke="#A3A3A3" stroke-width="3.13194" stroke-miterlimit="10"/>
<path d="M54.6118 46.0197C54.6118 46.0197 55.8676 46.0795 56.1186 44.3576C56.3695 42.6357 58.5227 29.6114 68.138 26.4893C68.138 26.4893 70.3987 30.0416 74.1303 32.2295C77.8619 34.4175 80.0705 34.9509 79.536 36.5945" stroke="#A3A3A3" stroke-width="3.13194" stroke-miterlimit="10"/>
<path d="M37.8816 25.1089C37.8816 25.1089 37.9631 26.5983 39.8283 26.3462C41.6936 26.0942 42.8777 25.7411 46.3584 25.7411C49.8391 25.7411 56.2116 26.5592 60.6678 32.319" stroke="#A3A3A3" stroke-width="3.13194" stroke-miterlimit="10"/>
<path d="M53.0379 26.8328C53.0379 26.8328 56.0819 23.0816 55.4724 16.5157C54.863 9.9498 51.9918 5.64459 51.9918 4.56801C51.9918 3.49144 52.8663 3.02539 52.8663 3.02539" stroke="#A3A3A3" stroke-width="3.13194" stroke-miterlimit="10"/>
<path d="M55.547 17.7694C55.547 17.7694 60.1727 19.4217 65.1601 17.5195C65.1601 17.5195 65.2297 23.0882 68.1378 26.4895" stroke="#A3A3A3" stroke-width="3.13194" stroke-miterlimit="10"/>
<path d="M65.1598 17.5201C65.1598 17.5201 70.3743 16.0014 75.0988 11.2768C76.8924 9.48324 78.0765 9.84174 78.0765 9.84174" stroke="#A3A3A3" stroke-width="3.13194" stroke-miterlimit="10"/>
</g>
<path d="M50.6426 55.3933V59.4444L47.3184 55.3933H46.7764V60.9274H47.5713V56.8763L50.8594 60.9274H51.4014V55.3933H50.6426Z" fill="#A3A3A3"/>
<path d="M54.545 55.3933V60.9274H57.7608V60.1678H55.3399V58.3231H57.1465V57.5635H55.3399V56.1529H57.6885V55.3933H54.545Z" fill="#A3A3A3"/>
<path d="M62.8554 55.3204C64.4091 55.2842 65.7099 56.514 65.7821 58.0693C65.8183 59.6247 64.5898 60.9268 63.0361 60.9991C61.4824 61.0353 60.1816 59.8055 60.1093 58.2502C60.1093 58.214 60.1093 58.1778 60.1093 58.1778C60.0732 56.6587 61.2656 55.3927 62.7831 55.3565C62.7831 55.3204 62.8193 55.3204 62.8554 55.3204ZM62.8554 60.2396C64.0116 60.3119 64.9872 59.4438 65.0595 58.2863C65.1317 57.1289 64.2646 56.1523 63.1083 56.0799C61.9521 56.0076 60.9765 56.8757 60.9042 58.0331C60.9042 58.0693 60.9042 58.1055 60.9042 58.1417C60.832 59.2268 61.663 60.1672 62.7831 60.2396C62.7831 60.2396 62.8193 60.2396 62.8554 60.2396Z" fill="#A3A3A3"/>
<path d="M71.0935 59.7338H70.5154L68.9256 57.2018V60.9274H68.1307V55.3933H68.6727L70.8045 58.7572L72.9363 55.3933H73.4783V60.9274H72.6834V57.2018L71.0935 59.7338Z" fill="#A3A3A3"/>
<defs>
<clipPath id="clip0_171_5706">
<rect width="46.9791" height="46.9791" fill="white" transform="translate(36.6379 1)"/>
</clipPath>
</defs>
</svg>
