<svg width="121" height="62" viewBox="0 0 121 62" fill="none" xmlns="http://www.w3.org/2000/svg">
<path d="M78.3296 10.3165C76.6477 11.5156 73.4502 13.1642 69.3202 12.1484C62.1759 10.3831 60.1275 4.23804 60.1275 4.23804C60.1275 4.23804 58.0791 10.3998 50.9348 12.1484C46.8048 13.1642 43.6074 11.5322 41.9254 10.3165H40.6431V43.5067C40.6431 44.3393 40.8429 46.0047 42.2085 47.6534C43.8905 49.7017 46.7382 51.0173 50.685 51.5836C53.8325 52.0332 56.1474 53.0324 57.7794 54.5978C58.9784 55.7636 60.1275 57.762 60.1275 57.762C60.1275 57.762 61.3099 55.7136 62.4756 54.5978C64.1077 53.0158 66.4391 52.0332 69.57 51.5836C73.5168 51.0173 76.3645 49.6851 78.0465 47.6534C79.4121 46.0047 79.6119 44.3393 79.6119 43.5067V10.3165H78.3296Z" fill="#A3A3A3"/>
<path d="M78.4461 11.6154C78.4461 11.6154 74.5325 14.6629 69.0369 13.2807C62.6254 11.682 60.1274 6.86914 60.1274 6.86914C60.1274 6.86914 57.6294 11.682 51.2178 13.2807C45.7222 14.6629 41.8087 11.6154 41.8087 11.6154V43.5065C41.8087 44.589 42.2583 49.1853 50.8514 50.4344C54.2487 50.9173 56.78 52.0164 58.5952 53.765C59.2447 54.3979 59.7443 55.0307 60.1274 55.6135C60.5104 55.0307 61.01 54.3812 61.6595 53.765C63.4747 52.0164 66.006 50.9173 69.4033 50.4344C77.9964 49.1853 78.4461 44.589 78.4461 43.5065V11.6154Z" fill="black"/>
<path d="M60.1276 52.383C60.1276 52.383 62.6256 49.3188 69.0871 48.3196C76.4979 47.1705 76.2814 43.69 76.2814 43.5234V26.8035H43.9572V43.5068C43.9572 43.69 43.7407 47.1705 51.1514 48.303C57.6296 49.3022 60.1276 52.383 60.1276 52.383Z" fill="#A3A3A3"/>
<path fill-rule="evenodd" clip-rule="evenodd" d="M52.6002 39.0102V31.0665L51.601 30.5003V28.4353H56.1307V30.5003L55.1814 31.0665V47.2703L52.7501 46.5375L49.2362 36.1791V43.007L50.352 43.8563V45.9546L45.4892 44.7223V42.9237L46.605 42.4907V31.0499L45.4725 30.5003V28.4353H49.1529L52.6002 39.0102ZM60.9435 46.2709L61.9094 47.4367V49.5017L57.0799 47.7031V45.9545L58.1457 45.5215V31.0831L57.0799 30.5502V28.4685H65.4566V32.6651H63.608L63.0418 30.9498H60.9102V35.796H62.5089L63.1417 34.88H64.4241V39.1599H63.1417L62.5422 38.294H60.9102V46.2709H60.9435ZM66.2727 44.9388V47.0038L74.7825 44.7223V39.4265H72.8174L72.4177 42.5907L70.3361 43.1569V31.0666L71.2853 30.5336V28.452H66.4558V30.5336L67.4717 31.0666V43.9563L66.2727 44.9388Z" fill="black"/>
<path fill-rule="evenodd" clip-rule="evenodd" d="M64.1576 13.0643C64.1576 13.0643 63.4082 13.464 62.3424 14.4965C62.5756 14.6297 62.842 14.8129 63.0086 14.9462C62.9276 15.019 62.8506 15.0919 62.7756 15.1628C62.6963 15.2378 62.6193 15.3107 62.5423 15.3791C61.8595 14.8129 61.1434 14.5298 60.5772 14.3966C60.7604 14.2634 60.9602 14.1301 61.1434 14.0136C61.4432 14.0968 61.7263 14.2134 61.7263 14.2134C62.9253 13.2975 63.9578 12.9144 63.9578 12.9144C63.9578 12.9144 63.8412 12.8478 63.5248 12.8645C58.8286 12.9311 54.5153 16.4283 55.3314 22.4235C55.4146 23.0564 55.6644 24.2221 55.9808 24.7217C56.0808 23.7225 56.4638 21.5242 57.5796 19.1595C57.1965 19.0262 56.8801 18.9596 56.8801 18.9596C56.9967 18.7265 57.1466 18.4101 57.1466 18.4101C57.9626 18.5599 58.6953 18.9097 59.3282 19.4093C59.2237 19.5834 59.1435 19.7089 59.0763 19.8142L59.0763 19.8142L59.0762 19.8143L59.0762 19.8143C59.047 19.86 59.0203 19.9018 58.9951 19.9422C58.7786 19.7756 58.5455 19.6258 58.3123 19.4759C57.0633 21.6575 56.4804 23.7225 56.2473 24.805C56.264 24.8716 56.3972 24.9049 56.5138 24.8882C61.6596 24.2221 64.0577 21.6075 64.7905 18.7598C65.2734 16.8946 65.1069 14.9462 64.4741 13.3474C64.459 13.3264 64.444 13.3032 64.4286 13.2794C64.3586 13.1713 64.2805 13.0507 64.1576 13.0643ZM44.8065 17.6607L43.341 16.5616H45.1229L45.7058 14.8629L46.2886 16.5616H48.0706L46.6051 17.6607L47.138 19.376L45.6891 18.3601L44.2403 19.376L44.8065 17.6607ZM43.341 22.2738L44.8065 23.3729L44.2403 25.0882L45.6891 24.0723L47.138 25.0882L46.6051 23.3729L48.0706 22.2738H46.2886L45.7058 20.5751L45.1229 22.2738H43.341ZM49.6859 22.2738L51.1514 23.3729L50.5852 25.0882L52.034 24.0723L53.4829 25.0882L52.9499 23.3729L54.4154 22.2738H52.6335L52.0507 20.5751L51.4678 22.2738H49.6859ZM49.6859 16.5616L51.1514 17.6607L50.5852 19.376L52.034 18.3601L53.4829 19.376L52.9499 17.6607L54.4154 16.5616H52.6335L52.0507 14.8629L51.4678 16.5616H49.6859ZM75.9816 25.1047L74.5327 24.0888L73.0839 25.1047L73.6168 23.3894L72.1513 22.2903H73.9499L74.5327 20.5916L75.1156 22.2903H76.8975L75.432 23.3894L75.9816 25.1047ZM68.2044 24.0888L69.6532 25.1047L69.087 23.3894L70.5525 22.2903H68.7706L68.1877 20.5916L67.6048 22.2903H65.8229L67.2884 23.3894L66.7555 25.1047L68.2044 24.0888ZM75.9816 19.376L74.5327 18.3601L73.0839 19.376L73.6168 17.6607L72.1513 16.5616H73.9499L74.5327 14.8629L75.1156 16.5616H76.8975L75.432 17.6607L75.9816 19.376ZM68.2044 18.3601L69.6532 19.376L69.087 17.6607L70.5525 16.5616H68.7706L68.1877 14.8629L67.6048 16.5616H65.8229L67.2884 17.6607L66.7555 19.376L68.2044 18.3601ZM57.5129 17.6775C58.279 17.8274 59.0617 18.1771 59.7278 18.7267C59.8444 18.5601 59.9776 18.3603 60.1109 18.1605C59.5779 17.7108 58.8119 17.2778 57.8793 17.0946C57.7461 17.2945 57.5129 17.6775 57.5129 17.6775ZM60.5772 17.5443C59.9611 17.028 59.195 16.6283 58.3457 16.4618C58.4789 16.2953 58.6288 16.1121 58.7787 15.9455C59.4282 16.0621 60.2608 16.4118 60.9936 17.0114C60.8437 17.1945 60.7105 17.3611 60.5772 17.5443ZM59.3781 15.3625C60.1442 15.529 60.8769 15.8787 61.5264 16.4116C61.6596 16.2451 61.8095 16.0952 61.9927 15.9287C61.5431 15.5623 60.8936 15.1293 59.9277 14.8962C59.899 14.9191 59.8694 14.9425 59.839 14.9665C59.6928 15.082 59.5298 15.2108 59.3781 15.3625Z" fill="#A3A3A3"/>
</svg>
