<svg width="121" height="62" viewBox="0 0 121 62" fill="none" xmlns="http://www.w3.org/2000/svg">
<path d="M18.514 33.5397V37.1811L21.3143 38.4043V30.7395L18.514 33.5397Z" fill="#A3A3A3"/>
<path d="M13.0314 35.0633L28.6661 19.4287L27.5506 16.5848L21.3116 22.8238V15.2232L18.5139 14V22.8238L13.1391 17.449L10.2953 18.5645L16.5343 24.8035H8.93363L7.71045 27.6012H16.5343L11.1595 32.976L12.2749 35.8198L13.034 35.0608L13.0314 35.0633Z" fill="#A3A3A3"/>
<path d="M21.8933 30.1606L26.6886 34.9558L29.5324 33.8404L23.873 28.1809L21.8933 30.1606Z" fill="#A3A3A3"/>
<path d="M27.2507 24.8027L24.4504 27.603H30.892L32.1152 24.8027H27.2507Z" fill="#A3A3A3"/>
<path d="M45.5904 47.5898C43.7851 47.5898 42.3491 47.2206 41.2823 46.4821C40.2156 45.7153 39.6822 44.1716 39.6822 41.8458V30.3166H36.1127V26.2957H39.6822V21.1261H44.8929V26.2957H49.8164V30.3166H44.8929V40.82C44.8929 41.9406 45.0698 42.6663 45.4263 42.9946C45.8084 43.2946 46.4238 43.4459 47.2726 43.4459H49.8164V47.5078C49.0497 47.536 48.3804 47.5488 47.806 47.5488C47.2316 47.577 46.493 47.5898 45.5904 47.5898ZM61.8508 48.0001C60.2917 48.0001 58.8274 47.7411 57.4606 47.2206C56.0939 46.7 54.904 45.9615 53.8911 45.005C52.9064 44.0203 52.114 42.8433 51.5114 41.4765C50.937 40.0815 50.6498 38.5224 50.6498 36.7992C50.6498 35.076 50.937 33.6271 51.5114 32.286C52.114 30.9192 52.9192 29.755 53.9321 28.7985C54.945 27.842 56.1349 27.1035 57.5017 26.5829C58.8685 26.0624 60.3199 25.8034 61.8508 25.8034C63.3817 25.8034 64.8331 26.0624 66.1998 26.5829C67.5666 27.1035 68.7436 27.842 69.7283 28.7985C70.7413 29.7293 71.5336 30.8782 72.108 32.2449C72.7107 33.5861 73.0107 35.1042 73.0107 36.7992C73.0107 38.4942 72.7107 40.0405 72.108 41.4355C71.5336 42.8023 70.7413 43.9793 69.7283 44.964C68.7154 45.9205 67.5256 46.6744 66.1588 47.2206C64.8177 47.7411 63.3817 48.0001 61.8508 48.0001ZM61.8508 43.569C63.5458 43.569 64.9279 42.9536 65.9947 41.7227C67.0615 40.4636 67.5948 38.8224 67.5948 36.7992C67.5948 34.8836 67.0615 33.3117 65.9947 32.0808C64.9279 30.85 63.5458 30.2345 61.8508 30.2345C60.1557 30.2345 58.7325 30.85 57.6658 32.0808C56.599 33.2835 56.0657 34.858 56.0657 36.7992C56.0657 38.7404 56.599 40.4226 57.6658 41.6816C58.7325 42.9407 60.1275 43.569 61.8508 43.569ZM95.9152 41.3124C95.587 42.4894 95.0664 43.4998 94.3561 44.3485C93.6714 45.1691 92.8662 45.8538 91.9354 46.4C91.0045 46.9462 89.9942 47.3437 88.8992 47.5898C87.8324 47.8642 86.7529 48.0001 85.6579 48.0001C84.1526 48.0001 82.732 47.754 81.3909 47.2616C80.0497 46.7411 78.8753 46.0025 77.8624 45.046C76.8495 44.0613 76.0443 42.8715 75.4417 41.4765C74.8672 40.0815 74.58 38.5096 74.58 36.7582C74.58 35.0067 74.8801 33.5861 75.4827 32.2449C76.0853 30.8782 76.8777 29.714 77.8624 28.7575C78.8753 27.801 80.0369 27.0753 81.3498 26.5829C82.691 26.0624 84.0578 25.8034 85.4528 25.8034C86.8478 25.8034 88.2299 26.0495 89.5146 26.5419C90.8276 27.0342 91.9636 27.7599 92.9201 28.7164C93.9048 29.6473 94.6843 30.8371 95.2587 32.286C95.8331 33.7092 96.1203 35.3632 96.1203 37.2505V38.3993H79.9138C80.1062 40.0687 80.7626 41.3944 81.8832 42.3791C83.0038 43.3638 84.3168 43.8562 85.822 43.8562C86.8067 43.8562 87.7504 43.6639 88.653 43.2818C89.5557 42.8997 90.2532 42.2432 90.7455 41.3124H95.9152ZM85.3707 29.9063C83.9757 29.9063 82.7577 30.3294 81.7191 31.1782C80.6806 32.027 80.0651 33.1886 79.8728 34.6657H90.7045C90.5942 33.2425 90.048 32.0937 89.0633 31.2192C88.0786 30.3448 86.8478 29.9063 85.3707 29.9063ZM113.876 47.5488V18.0078H119.127V47.5488H113.876ZM110.388 30.3166H105.588V47.5488H100.459V30.3166H96.8076V26.2957H100.459V23.9981C100.459 21.6723 101.046 20.0875 102.223 19.2387C103.4 18.3643 104.96 17.9258 106.901 17.9258C107.585 17.9258 108.185 17.9386 108.706 17.9668C109.227 17.9668 109.786 17.9796 110.388 18.0078V22.0697C110.006 22.0415 109.609 22.0287 109.198 22.0287C108.788 22.0005 108.378 21.9877 107.967 21.9877C107.283 21.9877 106.708 22.139 106.244 22.439C105.806 22.739 105.588 23.3698 105.588 24.3263V26.2957H110.388V30.3166Z" fill="#A3A3A3"/>
</svg>
