<svg width="73" height="52" viewBox="0 0 73 52" fill="none" xmlns="http://www.w3.org/2000/svg">
<g clip-path="url(#clip0_171_5701)">
<path d="M0.983557 46.2214C0.131141 45.72 0.0218568 45.3493 0 42.8421V40.3785H1.52998V42.3624C1.52998 44.5427 1.74855 45.1749 2.46982 45.1749C3.34409 45.1749 3.49709 44.7825 3.49709 42.5151V40.3785H5.24564V42.5369C5.24564 45.0659 5.07078 45.6764 4.17465 46.156C3.40966 46.5484 1.6174 46.5702 0.983557 46.2214ZM6.33848 43.4307V40.3785H7.32203C8.28373 40.3785 8.30559 40.4003 9.22358 41.861L10.1634 43.3217L10.229 41.861L10.2946 40.3785H11.8027V46.483H10.994C10.1853 46.4612 10.1197 46.4176 9.07058 44.6735L7.97774 42.8857L7.91217 44.6953L7.8466 46.483H6.33848V43.4307ZM13.1141 43.4525V40.3785L14.4911 40.4003C17.2887 40.4221 18.5783 41.3596 18.5783 43.3653C18.5783 45.4147 17.5729 46.2432 14.8189 46.4176L13.1141 46.5484V43.4525ZM16.4363 44.5863C16.9609 44.1066 16.9609 42.7549 16.4363 42.2752C16.2178 42.079 15.715 41.8392 15.3435 41.7738L14.6441 41.643V45.2403L15.3435 45.0877C15.715 45.0223 16.2178 44.7825 16.4363 44.5863ZM19.4526 43.4307V40.3785H23.8239V41.6866H22.5125C21.3541 41.6866 21.2011 41.7302 21.2011 42.1226C21.2011 42.5151 21.3541 42.5587 22.4032 42.5587C23.5835 42.5587 23.6054 42.5587 23.6054 43.2127C23.6054 43.8668 23.5835 43.8668 22.4032 43.8668C21.2667 43.8668 21.2011 43.8886 21.2011 44.4118C21.2011 44.9351 21.2667 44.9569 22.5125 44.9569H23.8239V46.483H19.4526V43.4307ZM24.9168 43.4089V40.3349L26.9057 40.4221C28.7854 40.5093 28.9384 40.5529 29.4411 41.1415C30.075 41.861 30.0094 42.8203 29.2881 43.518C28.8729 43.9322 28.8947 43.954 29.7471 45.0223C30.2061 45.6109 30.5995 46.1996 30.5995 46.2868C30.5995 46.3958 30.1624 46.483 29.6378 46.483C28.7199 46.483 28.6106 46.4176 27.8674 45.3929C27.4303 44.8043 26.9713 44.3028 26.862 44.3028C26.7527 44.3028 26.6653 44.8043 26.6653 45.3929V46.483H24.9168V43.4089ZM27.9986 42.6459C28.239 42.3406 28.2171 42.2534 27.8674 41.9918C27.1462 41.4686 26.6653 41.5994 26.6653 42.3406C26.6653 42.8857 26.7527 42.9947 27.1899 42.9947C27.474 42.9947 27.8456 42.8421 27.9986 42.6459ZM33.1131 46.1124C33.2005 45.8944 33.7032 44.5208 34.2496 43.0601L35.255 40.3785H37.1129L38.0964 43.0601C38.6429 44.5208 39.1456 45.8944 39.233 46.1124C39.3641 46.4176 39.2548 46.483 38.4899 46.483C37.6593 46.483 37.55 46.4176 37.3533 45.829C37.1347 45.2403 37.0254 45.1749 36.173 45.1749C35.3206 45.1749 35.2113 45.2403 34.9928 45.829C34.7961 46.4176 34.6868 46.483 33.8562 46.483C33.0912 46.483 32.9819 46.4176 33.1131 46.1124ZM36.479 43.6052C36.479 43.4525 36.3916 43.1255 36.3042 42.9075C36.1512 42.5151 36.1075 42.5587 35.8889 43.1691C35.6703 43.8014 35.6922 43.8668 36.0856 43.8668C36.3042 43.8668 36.5009 43.736 36.479 43.6052ZM39.7794 43.4307V40.3785H41.2657C43.0579 40.3785 44.2819 40.7055 44.5879 41.2505C44.9376 41.9046 44.8502 42.8639 44.3693 43.3871C44.1289 43.6488 43.9322 43.9104 43.9322 43.9758C43.9322 44.063 44.2819 44.5427 44.6972 45.0441C45.1125 45.5673 45.4622 46.0906 45.4622 46.2432C45.4622 46.374 45.0688 46.483 44.5005 46.483C43.6044 46.483 43.5169 46.4176 42.8175 45.3929C41.8558 43.9976 41.528 43.9976 41.528 45.3929V46.483H39.7794V43.4307ZM42.8394 42.6677C43.2109 42.2316 42.7738 41.6866 42.0525 41.6866C41.6154 41.6866 41.528 41.7956 41.528 42.3406C41.528 42.8857 41.6154 42.9947 42.0525 42.9947C42.3367 42.9947 42.6864 42.8421 42.8394 42.6677ZM45.8993 43.4307V40.3785H47.8883L48.4784 41.7084L49.0686 43.0383L49.7243 41.7084C50.3581 40.3785 50.3581 40.3785 51.2979 40.3785H52.2378V46.483H50.4892L50.4674 44.9133L50.4455 43.3217L50.1177 44.1502C49.8117 44.8479 49.6805 44.9569 49.0686 44.9569C48.4566 44.9569 48.3254 44.8479 48.0194 44.1502L47.6916 43.3217L47.6697 44.9133L47.6479 46.483H45.8993V43.4307ZM54.7513 46.2868C54.5109 46.1778 54.0738 45.829 53.7678 45.5019C53.2869 45.0005 53.2213 44.7171 53.2213 43.4089C53.2213 42.0136 53.2651 41.861 53.9208 41.2069C54.5109 40.6183 54.8169 40.5093 55.8879 40.4439C57.3741 40.3567 58.0299 40.6183 58.7293 41.6648C59.5598 42.8857 59.2975 44.9133 58.161 45.9162C57.6364 46.3958 55.5163 46.6138 54.7513 46.2868ZM56.9151 44.8261C57.8987 43.8668 57.396 41.6866 56.1939 41.6866C55.3633 41.6866 54.9699 42.2534 54.9699 43.4307C54.9699 44.3028 55.0792 44.6299 55.3852 44.8697C55.9534 45.2621 56.4999 45.2621 56.9151 44.8261ZM60.8057 45.938L60.1062 45.3493V40.3785H61.6362V41.9918C61.6362 44.281 61.8111 44.9351 62.4231 45.0877C63.4066 45.3275 63.6033 44.8915 63.6033 42.5369V40.3785H65.3519V42.7549C65.3519 44.9569 65.3082 45.1967 64.8273 45.7418C64.3902 46.265 64.106 46.3522 62.9039 46.4394C61.6362 46.5266 61.4395 46.483 60.8057 45.938ZM66.4447 43.4307V40.3785H67.931C69.7232 40.3785 70.9472 40.7055 71.2532 41.2505C71.6029 41.8828 71.5155 42.6677 71.0347 43.2781C70.7942 43.5834 70.5975 43.8886 70.5975 43.9758C70.5975 44.063 70.9472 44.5427 71.3625 45.0441C71.7778 45.5673 72.1275 46.0906 72.1275 46.2432C72.1275 46.374 71.7559 46.483 71.1877 46.483C70.3134 46.483 70.2041 46.3958 69.4391 45.3929C68.9801 44.8043 68.5211 44.3028 68.4118 44.3028C68.2807 44.3028 68.1933 44.8043 68.1933 45.3929V46.483H66.4447V43.4307ZM69.5047 42.6677C69.8762 42.2316 69.4391 41.6866 68.7178 41.6866C68.2807 41.6866 68.1933 41.7956 68.1933 42.3406C68.1933 42.8857 68.2807 42.9947 68.7178 42.9947C69.002 42.9947 69.3517 42.8421 69.5047 42.6677ZM18.1412 37.2172C15.4091 36.5849 11.6715 35.4294 8.56787 34.2303C5.98877 33.2492 6.09805 33.489 7.34389 30.851C8.28373 28.8888 10.3164 26.1854 11.7371 24.9863C13.0048 23.918 15.1905 22.4572 16.1522 22.0648C17.0046 21.716 17.0046 21.5415 16.1303 21.1709C14.8408 20.6477 12.2617 18.8163 10.9284 17.4864C9.48586 16.0474 7.91217 13.78 7.12532 11.9705C6.16362 9.81206 6.09805 9.98648 8.13074 9.2016C12.4802 7.50105 17.3762 6.08392 20.4798 5.60427C21.2448 5.49526 21.3978 5.51707 21.4853 5.8659C21.5508 6.08392 21.6601 8.76556 21.7475 11.8178L21.9005 17.3774L22.5999 18.3584C23.4305 19.4921 23.4961 19.514 26.6653 18.9471C32.7415 17.857 38.621 17.9006 44.7628 19.0343C46.1179 19.2959 47.2763 19.4703 47.2981 19.4267C47.3419 19.3831 47.7353 18.9035 48.1724 18.4021L48.9593 17.4428V5.45166L50.1177 5.60427C53.5055 6.06212 59.232 7.98069 61.5488 9.46323C62.2919 9.94287 62.4668 10.1827 62.5979 10.9458C62.7728 12.0577 62.5979 13.1478 62.0078 14.4341C61.3958 15.7858 57.9861 19.0779 55.7786 20.4296C54.795 21.0401 54.0082 21.5633 54.0082 21.6287C54.0082 21.6942 54.8606 22.2828 55.9097 22.9369C58.2047 24.3976 61.3739 27.4499 62.0078 28.8234C62.5761 30.0443 62.7946 31.5051 62.5542 32.5297C62.4231 33.1402 62.1608 33.4236 61.1991 34.0123C58.773 35.4512 53.5055 37.1736 50.0084 37.675L48.9593 37.8058V25.7493L48.0194 24.7682L47.1014 23.7871L44.6972 24.2232C38.3806 25.4005 32.4574 25.4005 26.1408 24.2232C24.8293 23.9834 23.6491 23.8307 23.4961 23.8962C23.3431 23.9398 22.9059 24.4194 22.5562 24.9426L21.9005 25.9019L21.7475 31.4396C21.6601 34.4919 21.5508 37.1736 21.5071 37.3916C21.3541 37.8712 20.9607 37.8494 18.1412 37.2172ZM40.1073 23.2639C41.6591 22.8279 43.9322 21.8468 43.9322 21.6287C43.9322 21.3017 40.7848 20.1462 38.927 19.7756C36.632 19.2959 32.0202 19.4267 30.1624 19.9936C28.6324 20.4514 26.4467 21.4325 26.4467 21.6287C26.4467 21.9776 29.9876 23.3075 31.911 23.6781C33.1349 23.8962 38.8177 23.6345 40.1073 23.2639Z" fill="#A3A3A3"/>
</g>
<defs>
<clipPath id="clip0_171_5701">
<rect width="72.1275" height="52" fill="white"/>
</clipPath>
</defs>
</svg>
