<svg width="131" height="62" viewBox="0 0 131 62" fill="none" xmlns="http://www.w3.org/2000/svg">
<g clip-path="url(#clip0_171_5733)">
<path d="M67.1134 44.9409V52.4863C67.1134 53.4535 67.8688 54.234 68.7552 54.234H107.561C108.45 54.234 109.203 53.4535 109.203 52.4863V44.9409C109.203 43.9793 108.447 43.157 107.561 43.157H68.7552C67.866 43.157 67.1134 43.9793 67.1134 44.9409ZM69.5105 49.6265C69.5105 48.361 70.4359 47.3575 71.5648 47.3575C72.6937 47.3575 73.5885 48.3638 73.5885 49.6265C73.5885 50.8891 72.6631 51.8536 71.5648 51.8536C70.4666 51.8536 69.5105 50.8501 69.5105 49.6265ZM100.952 44.7569C101.362 44.6064 101.774 44.5339 102.218 44.5339C103.109 44.5339 103.795 44.7932 104.308 45.2754C104.785 45.7966 105.061 46.4656 105.061 47.3548V52.6703H103.176V47.6168C103.176 46.5799 102.7 46.0586 101.738 46.0586C101.465 46.0586 101.192 46.1339 100.916 46.3206C100.676 46.4684 100.506 46.6551 100.367 46.8753V52.6731H98.5187V47.3575C98.5187 46.9506 98.3821 46.6161 98.1452 46.3931C97.9054 46.1673 97.5598 46.0586 97.1166 46.0586C96.8741 46.0586 96.6037 46.1339 96.325 46.3206C96.0546 46.5046 95.8484 46.6914 95.7118 46.8753V52.6731H93.8638V44.6845H95.132L95.539 45.3897C96.0546 44.796 96.7041 44.5339 97.557 44.5339C98.619 44.5339 99.4078 44.8322 99.9597 45.3897C100.197 45.1276 100.506 44.9047 100.952 44.7597V44.7569ZM91.3273 45.6489C92.0102 46.3206 92.3558 47.3575 92.3558 48.623C92.3558 49.8885 92.0102 50.9254 91.2938 51.6696C90.6081 52.4528 89.6827 52.8208 88.4869 52.8208C87.2911 52.8208 86.2933 52.4528 85.6438 51.6696C84.9581 50.9254 84.6153 49.8885 84.6153 48.623C84.6153 47.3575 84.9581 46.4321 85.6745 45.6851C86.3936 44.9047 87.319 44.5339 88.4841 44.5339C89.7162 44.5339 90.6416 44.9047 91.3273 45.6489ZM83.5533 45.3144L82.7645 46.6886C82.3185 46.2426 81.7359 46.0586 80.9833 46.0586C80.2307 46.0586 79.7151 46.2816 79.3081 46.7638C78.8956 47.2461 78.6893 47.8788 78.6893 48.7317C78.6893 50.4041 79.4782 51.2599 81.0865 51.2599C81.8056 51.2599 82.4244 50.9978 82.9373 50.5547L83.623 52.0375C83.0739 52.372 82.5944 52.5978 82.1875 52.6703C81.8084 52.7818 81.2927 52.818 80.7436 52.818C79.5116 52.818 78.5221 52.4501 77.803 51.7449C77.081 51.0006 76.741 49.9972 76.741 48.7317C76.741 47.4663 77.1173 46.4321 77.9033 45.6851C78.6921 44.9047 79.7876 44.5339 81.1255 44.5339C82.0843 44.5339 82.8732 44.7932 83.5589 45.3144H83.5533ZM87.0793 46.6886C86.7365 47.1708 86.5664 47.8035 86.5664 48.623C86.5664 50.4041 87.2159 51.2961 88.4841 51.2961C89.0667 51.2961 89.5461 51.0369 89.889 50.5937C90.229 50.1477 90.4018 49.4759 90.4018 48.623C90.4018 46.8753 89.7524 46.0224 88.4869 46.0224C87.9044 46.0224 87.4249 46.2454 87.0821 46.6914L87.0793 46.6886Z" fill="#A3A3A3"/>
<path d="M125.464 7.85223C123.505 7.43413 121.838 8.60203 120.67 10.071C119.326 11.7601 118.434 13.82 117.712 15.8352C116.751 18.5083 116.073 21.2957 115.549 24.0859C115.009 26.9541 114.674 29.8613 114.579 32.7796C114.532 34.2179 114.535 35.6674 114.616 37.1056C114.657 37.8192 114.724 38.5272 114.828 39.2352C114.875 39.5725 114.933 39.9097 115.003 40.2442C115.034 40.4115 115.07 40.5787 115.109 40.7432C115.145 40.7822 115.301 40.7292 115.34 40.7181C116.586 40.4533 117.938 40.3892 119.212 40.4784C120.581 40.5703 121.846 40.9857 123.034 41.6658C123.321 41.8302 123.602 42.003 123.875 42.1898C124.017 42.2874 124.154 42.3877 124.291 42.488C124.416 42.5772 124.516 42.7027 124.653 42.7696C125.013 42.1982 125.333 41.6072 125.626 40.9996C126.211 39.7815 126.682 38.5105 127.109 37.2311C128.017 34.5329 128.709 31.7678 129.194 28.961C129.69 26.1095 130.008 23.219 130.097 20.3257C130.178 17.8672 130.094 15.353 129.511 12.9559C128.987 10.7818 127.864 8.36511 125.461 7.85223H125.464ZM119.048 29.5101L127.928 21.5159C127.942 23.1465 127.892 24.7771 127.711 26.3938C127.527 28.0244 127.234 29.6467 126.9 31.2522C124.734 30.77 122.571 30.2933 120.408 29.8111C119.956 29.7135 119.499 29.6104 119.048 29.5101ZM120.441 15.7488C121.082 14.6478 121.718 13.5608 122.64 12.6688C123.354 11.9803 124.458 11.25 125.406 11.9524C126.217 12.5517 126.663 13.6583 126.975 14.5781C127.396 15.799 127.635 17.1369 127.753 18.4191C125.174 17.8003 122.582 17.2345 119.995 16.6464C120.143 16.3481 120.294 16.0471 120.438 15.7488H120.441ZM116.868 27.2384C117.152 25.8558 117.372 24.4621 117.704 23.088C117.869 22.3995 118.075 21.725 118.295 21.0532C118.342 20.8971 118.822 19.3473 118.872 19.3585C119.834 19.5759 120.79 19.7933 121.751 20.0079C122.942 20.2755 124.135 20.5459 125.328 20.8163L116.759 28.0579C116.795 27.7819 116.832 27.5087 116.868 27.2356V27.2384ZM125.924 35.0207C125.715 35.6674 125.506 36.3168 125.255 36.9523C125.23 37.0192 124.971 37.7077 124.932 37.7021C124.912 37.6966 124.89 37.691 124.87 37.6854C124.539 37.6157 124.207 37.5433 123.875 37.4736C122.554 37.1948 121.233 36.9077 119.912 36.629C118.741 36.3781 117.57 36.1301 116.4 35.882C116.369 35.2437 116.369 34.6082 116.344 33.9699C116.313 33.3204 116.405 32.6765 116.4 32.0299C118.471 32.5009 120.539 32.9748 122.61 33.443C123.794 33.7134 124.979 33.9866 126.164 34.2542C126.083 34.5078 126.002 34.7643 125.93 35.0235L125.924 35.0207Z" fill="#A3A3A3"/>
<path d="M20.3693 40.7263H2.8674C2.11203 40.7263 1.46257 40.4699 0.913459 39.9486C0.397796 39.4274 0.124634 38.8309 0.124634 38.1647C0.124634 37.4177 0.434032 36.4533 1.08349 35.2296L13.6211 11.1133H7.04567C5.36767 11.1133 4.20255 11.4116 3.58654 11.9691C2.97054 12.5265 2.62769 13.6387 2.59145 15.3864H0.503716V7.84375H16.1882C18.5519 7.84375 19.7505 8.81097 19.7505 10.7036C19.7505 11.2611 19.5805 11.93 19.2014 12.6352L6.25684 37.4958H20.3665V40.7291L20.3693 40.7263Z" fill="#A3A3A3"/>
<path d="M36.876 38.0533H34.4789C33.4531 38.0533 32.5974 38.3098 31.9452 38.87C30.6435 39.8735 29.994 40.431 29.9243 40.47C29.102 40.9884 28.1432 41.2477 27.0812 41.2477C25.3698 41.2477 23.9315 40.6902 22.7664 39.5752C21.6012 38.4603 21.0187 37.1251 21.0187 35.5614C21.0187 30.9929 24.6478 28.5038 31.842 28.1331V26.0509C31.842 24.0468 31.7027 22.5974 31.3598 21.7026C31.0504 20.8107 30.4706 20.3675 29.6818 20.3675C28.893 20.3675 28.3467 20.7382 28.107 21.5549C28.0735 21.5912 27.9341 22.4469 27.6944 24.0468C27.4547 25.6412 26.4959 26.4969 24.7482 26.4969L21.9747 23.6343C22.0416 21.8894 22.7636 20.479 24.1322 19.4365C25.5398 18.3606 27.3878 17.8394 29.7153 17.8394C32.3187 17.8394 34.1667 18.5055 35.2621 19.771C36.3241 21.0699 36.8732 23.2608 36.8732 26.3102V38.0506L36.876 38.0533ZM31.842 35.1935V30.6585C28.2435 30.8787 26.429 32.2194 26.429 34.7447C26.429 36.7488 27.1146 37.7885 28.486 37.7885C29.9578 37.7885 31.0532 36.8994 31.842 35.1907V35.1935Z" fill="#A3A3A3"/>
<path d="M39.7861 21.9646H40.4384C40.745 22.0036 40.9513 22.0036 41.0544 22.0036C42.4564 22.0036 43.3818 21.8169 43.8975 21.4461C44.7504 20.6657 45.6424 19.8852 46.5678 19.0685C47.5601 18.2881 48.6918 17.9146 49.9572 17.9146C52.254 17.9146 54.0686 18.918 55.4037 20.9974C56.7389 23.0795 57.4246 25.9422 57.4246 29.6187C57.4246 33.2952 56.7055 36.3446 55.3006 38.4268C53.8958 40.4699 51.9112 41.5096 49.3775 41.5096C47.4598 41.5096 45.9156 40.7291 44.7198 39.2072V48.0488C44.7198 48.8292 44.4801 49.462 44.0341 49.9832C43.5547 50.5044 42.9721 50.7609 42.2892 50.7609C41.57 50.7609 40.9847 50.5044 40.5081 49.947C40.0286 49.4257 39.7889 48.793 39.7889 48.0488V21.9646H39.7861ZM44.7198 31.2911C44.7198 35.8206 45.9518 38.0533 48.3852 38.0533C50.8185 38.0533 51.914 35.1934 51.914 29.5044C51.914 23.8154 50.7851 21.2928 48.4883 21.2928C46.9469 21.2928 45.6814 22.8175 44.7226 25.9004V31.2911H44.7198Z" fill="#A3A3A3"/>
<path d="M59.4816 21.9646H60.131C60.407 22.0036 60.6105 22.0036 60.7498 22.0036C62.1547 22.0036 63.0773 21.8169 63.5929 21.4461C64.4487 20.6657 65.3406 19.8852 66.2298 19.0685C67.2583 18.2881 68.39 17.9146 69.6527 17.9146C71.916 17.9146 73.7306 18.918 75.0685 20.9974C76.4037 23.0795 77.0531 25.9422 77.0531 29.6187C77.0531 33.2952 76.3674 36.3446 74.9626 38.4268C73.5243 40.4699 71.6066 41.5096 69.0729 41.5096C67.1524 41.5096 65.6138 40.7291 64.4152 39.2072V48.0488C64.4152 48.8292 64.1755 49.462 63.6961 49.9832C63.2501 50.5044 62.6703 50.7609 61.9512 50.7609C61.232 50.7609 60.6829 50.5044 60.2035 49.947C59.7241 49.4257 59.4844 48.793 59.4844 48.0488V21.9646H59.4816ZM64.4124 31.2911C64.4124 35.8206 65.611 38.0533 68.075 38.0533C70.5391 38.0533 71.6038 35.1934 71.6038 29.5044C71.6038 23.8154 70.4387 21.2928 68.1447 21.2928C66.6061 21.2928 65.3713 22.8175 64.4124 25.9004V31.2911Z" fill="#A3A3A3"/>
<path d="M95.5473 29.7302C95.5473 37.3871 92.7014 41.2476 87.0849 41.2476C81.4684 41.2476 78.5918 37.3843 78.5918 29.7302C78.5918 22.0761 81.4349 17.842 87.0849 17.842C89.6855 17.842 91.7426 18.8817 93.284 20.9973C94.7892 23.0795 95.5473 26.0146 95.5473 29.7302ZM90.6137 31.6256C90.6137 28.1664 90.5106 25.8613 90.3378 24.8244C89.8918 21.8893 88.7963 20.4036 87.1184 20.4036C85.8166 20.4036 84.8912 21.1451 84.3449 22.6698C83.7958 24.1582 83.5226 26.4996 83.5226 29.7302C83.5226 32.9607 83.7986 35.0819 84.278 36.4561C84.8243 37.9445 85.747 38.6888 87.0849 38.6888C89.4124 38.6888 90.6137 36.3474 90.6137 31.6284V31.6256Z" fill="#A3A3A3"/>
<path d="M107.497 23.6342C107.497 21.6663 106.435 20.6991 104.311 20.6991C102.496 20.6991 101.607 21.4405 101.607 23.0015C101.607 23.9687 102.566 25.0446 104.481 26.3101C105.442 26.9038 106.571 27.6842 107.873 28.5734C109.621 30.2486 110.51 32.2555 110.51 34.5216C110.51 36.4895 109.858 38.1257 108.556 39.3521C107.254 40.5758 105.576 41.1695 103.489 41.1695C101.638 41.1695 100.133 40.8378 98.9702 40.1298C97.8051 39.4246 97.1863 38.5327 97.1863 37.532C97.1863 36.8993 97.6323 36.601 98.5214 36.601C98.7612 36.601 99.0009 36.601 99.1709 36.6373C100.539 37.6435 101.808 38.1619 102.973 38.1619C104.927 38.1619 105.919 37.3815 105.919 35.8206C105.919 34.9648 105.543 34.2262 104.79 33.5182C104.481 33.1837 103.489 32.4785 101.811 31.3273C100.133 30.1761 98.934 29.1337 98.2483 28.2083C97.426 27.1295 97.019 25.8641 97.019 24.4174C97.019 22.3381 97.6657 20.7409 99.0037 19.5869C100.305 18.4357 102.156 17.842 104.587 17.842C105.679 17.842 107.257 18.1375 109.278 18.734V23.637H107.497V23.6342Z" fill="#A3A3A3"/>
<path d="M123.588 49.5067C123.198 52.4056 120.597 54.4459 117.774 54.0668C114.953 53.6878 112.985 51.0314 113.375 48.1381C113.766 45.2393 116.366 43.2017 119.184 43.5808C122.008 43.9626 123.976 46.6134 123.588 49.5067Z" fill="#A3A3A3"/>
<path d="M126.788 49.094C127.73 49.094 128.48 49.8243 128.48 50.7581C128.48 51.6918 127.73 52.4277 126.777 52.4277C125.824 52.4277 125.066 51.689 125.066 50.7581C125.066 49.8271 125.824 49.094 126.777 49.094H126.788ZM126.769 49.4285C126.049 49.4285 125.492 50.0278 125.492 50.7581C125.492 51.4883 126.049 52.0821 126.788 52.0821C127.507 52.0932 128.056 51.4967 128.056 50.7664C128.056 50.0361 127.507 49.4285 126.78 49.4285H126.771H126.769ZM126.512 51.6166H126.13V49.9553C126.281 49.9358 126.493 49.9051 126.769 49.9051C127.081 49.9051 127.223 49.9553 127.337 50.0361C127.438 50.1086 127.507 50.2285 127.507 50.3901C127.507 50.5908 127.357 50.7246 127.162 50.7859V50.8054C127.323 50.8584 127.404 50.9866 127.457 51.2124C127.504 51.466 127.549 51.5552 127.577 51.6166H127.173C127.123 51.5552 127.092 51.4159 127.042 51.2124C127.011 51.0396 126.911 50.9587 126.699 50.9587H126.515V51.6166H126.512ZM126.523 50.6856H126.707C126.919 50.6856 127.092 50.6159 127.092 50.4431C127.092 50.2898 126.98 50.1894 126.738 50.1894C126.635 50.1894 126.565 50.1978 126.523 50.2117V50.6856Z" fill="#A3A3A3"/>
</g>
<defs>
<clipPath id="clip0_171_5733">
<rect width="130" height="46.4682" fill="white" transform="translate(0.127441 7.76587)"/>
</clipPath>
</defs>
</svg>
